<?xml version="1.0" standalone="no"?>
<!DOCTYPE svg PUBLIC "-//W3C//DTD SVG 1.1//EN" "http://www.w3.org/Graphics/SVG/1.1/DTD/svg11.dtd" >
<svg xmlns="http://www.w3.org/2000/svg">
<metadata></metadata>
<defs>
<font id="contax_pro_55regular" horiz-adv-x="582" >
<font-face units-per-em="1000" ascent="800" descent="-200" />
<missing-glyph horiz-adv-x="290" />
<glyph unicode="&#xfb01;" horiz-adv-x="626" d="M545 654q0 -22 -16.5 -38.5t-38.5 -16.5t-38.5 16.5t-16.5 38.5t16.5 38.5t38.5 16.5t38.5 -16.5t16.5 -38.5zM530 0h-80v502h80v-502zM400 657l-47 -57q-31 32 -74 32q-98 0 -98 -130h169v-71h-169v-431h-80v431h-83v71h84q0 98 49 152t124 54q78 0 125 -51z" />
<glyph unicode="&#xfb02;" horiz-adv-x="626" d="M530 0h-80v700h80v-700zM400 657l-47 -57q-31 32 -74 32q-98 0 -98 -130h169v-71h-169v-431h-80v431h-83v71h84q0 98 49 152t124 54q78 0 125 -51z" />
<glyph unicode="&#xfb03;" horiz-adv-x="975" d="M408 649l-55 -49q-31 32 -74 32q-98 0 -98 -130h164v-71h-164v-431h-80v431h-83v71h84q0 98 49 152t124 54q79 0 133 -59zM894 654q0 -22 -16 -38.5t-39 -16.5t-39 16.5t-16 38.5t16 38.5t39 16.5t39 -16.5t16 -38.5zM879 0h-80v502h80v-502zM749 657l-47 -57 q-31 32 -74 32q-98 0 -98 -130h169v-71h-169v-431h-80v431h-83v71h84q0 98 49 152t124 54q78 0 125 -51z" />
<glyph unicode="&#xfb04;" horiz-adv-x="975" d="M408 649l-55 -49q-31 32 -74 32q-98 0 -98 -130h164v-71h-164v-431h-80v431h-83v71h84q0 98 49 152t124 54q79 0 133 -59zM749 657l-47 -57q-31 32 -74 32q-98 0 -98 -130h169v-71h-169v-431h-80v431h-83v71h84q0 98 49 152t124 54q78 0 125 -51zM879 0h-80v700h80v-700z " />
<glyph horiz-adv-x="0" />
<glyph horiz-adv-x="333" />
<glyph unicode=" "  horiz-adv-x="290" />
<glyph unicode="&#x09;" horiz-adv-x="290" />
<glyph unicode="&#xa0;" horiz-adv-x="290" />
<glyph unicode="!" horiz-adv-x="290" d="M185 188h-80v512h80v-512zM200 47q0 -23 -16 -39t-39 -16t-39 16t-16 39t16 39t39 16t39 -16t16 -39z" />
<glyph unicode="&#x22;" horiz-adv-x="426" d="M321 457h-68v258h68v-258zM173 457h-68v258h68v-258z" />
<glyph unicode="#" d="M544 403h-118l-20 -127h109v-57h-117l-34 -219h-60l33 219h-129l-34 -219h-60l33 219h-109v57h118l20 127h-109v57h117l32 206h60l-31 -206h129l32 206h60l-31 -206h109v-57zM366 403h-130l-20 -127h130z" />
<glyph unicode="$" d="M500 199q0 -74 -51.5 -126t-131.5 -63v-99h-64v98q-80 9 -131.5 59t-56.5 119l74 16q2 -49 33.5 -81.5t80.5 -40.5v240q-90 23 -128 62t-38 99q0 67 47 115.5t119 59.5v88h64v-86q72 -7 118.5 -49.5t55.5 -103.5l-74 -16q-7 38 -34 63t-66 31v-201q99 -27 141 -70.5 t42 -113.5zM253 401v182q-40 -7 -64 -34t-24 -62q0 -30 20 -50t68 -36zM422 198q0 39 -24 63t-81 43v-222q48 8 76.5 40t28.5 76z" />
<glyph unicode="%" horiz-adv-x="774" d="M734 153q0 -67 -47 -114t-114 -47t-114 47t-47 114t47 114t114 47t114 -47t47 -114zM606 674l-376 -682h-63l376 682h63zM362 513q0 -67 -47 -114t-114 -47t-114 47t-47 114t47 114t114 47t114 -47t47 -114zM665 153q0 38 -27 65t-65 27t-65 -27t-27 -65t27 -65t65 -27 t65 27t27 65zM293 513q0 38 -27 65t-65 27t-65 -27t-27 -65t27 -65t65 -27t65 27t27 65z" />
<glyph unicode="&#x26;" horiz-adv-x="762" d="M708 380h-136q27 -39 23.5 -111.5t-42.5 -135.5l128 -133h-107l-70 74q-75 -84 -187 -84q-62 0 -110.5 19.5t-75 50t-40 63.5t-13.5 64q0 62 39.5 115.5t90.5 77.5q-22 22 -35.5 38.5t-27.5 47t-14 61.5q0 60 48.5 103.5t122.5 43.5q90 0 137 -46l-47 -63q-32 34 -88 34 q-43 0 -68 -22.5t-25 -55.5q0 -7 2 -14t4 -13t7.5 -14t9 -13t12.5 -15t13.5 -14.5t17 -17.5t18.5 -19l210 -218q25 42 22 99t-31 98h-90v71h302v-71zM459 120l-205 213q-96 -51 -96 -137q0 -52 46.5 -95t116.5 -43q78 0 138 62z" />
<glyph unicode="'" horiz-adv-x="278" d="M173 457h-68v258h68v-258z" />
<glyph unicode="(" horiz-adv-x="340" d="M304 -165l-61 -38q-159 204 -159 455q0 249 159 453l61 -38q-142 -203 -142 -415q0 -214 142 -417z" />
<glyph unicode=")" horiz-adv-x="340" d="M256 252q0 -251 -159 -455l-61 38q142 203 142 417q0 212 -142 415l61 38q159 -204 159 -453z" />
<glyph unicode="*" d="M471 548l-133 -31l90 -103l-66 -48l-71 117l-70 -118l-66 48l89 104l-133 30l25 78l126 -53l-12 136h82l-12 -137l126 55z" />
<glyph unicode="+" horiz-adv-x="600" d="M552 243h-218v-219h-68v219h-218v68h218v219h68v-219h218v-68z" />
<glyph unicode="," horiz-adv-x="290" d="M202 89l-110 -244h-83l110 244h83z" />
<glyph unicode="-" horiz-adv-x="345" d="M297 220h-249v71h249v-71z" />
<glyph unicode="." horiz-adv-x="290" d="M200 45q0 -23 -16 -39t-39 -16t-39 16t-16 39t16 39t39 16t39 -16t16 -39z" />
<glyph unicode="/" horiz-adv-x="398" d="M360 739l-252 -832l-70 20l252 832z" />
<glyph unicode="0" d="M523 333q0 -180 -65.5 -260.5t-166.5 -80.5q-104 0 -168 80t-64 261t64 261t168 80q101 0 166.5 -80.5t65.5 -260.5zM443 333q0 81 -11.5 135t-34 81.5t-47.5 38t-59 10.5q-73 0 -112.5 -60t-39.5 -205t39.5 -205t112.5 -60q152 0 152 265z" />
<glyph unicode="1" d="M372 0h-80v587l-137 -56l-27 66l194 77h50v-674z" />
<glyph unicode="2" d="M484 0h-446l290 333q42 48 57.5 77.5t15.5 60.5q0 52 -38.5 89.5t-91.5 37.5q-84 0 -128 -91l-64 38q28 63 78.5 96t115.5 33q91 0 149.5 -59t58.5 -145q0 -82 -85 -180l-190 -218h278v-72z" />
<glyph unicode="3" d="M491 198q0 -87 -67.5 -146.5t-165.5 -59.5q-65 0 -117 26.5t-84 74.5l67 41q19 -31 57.5 -48.5t83.5 -17.5q60 0 103 37.5t43 90.5q0 55 -45.5 91t-108.5 36h-85v72h55q83 0 121.5 24.5t38.5 76.5q0 46 -34.5 74t-85.5 28q-78 0 -117 -54l-67 41q66 89 180 89 q89 0 146.5 -51t57.5 -127q0 -94 -95 -136q57 -20 88 -62t31 -100z" />
<glyph unicode="4" d="M551 187h-104v-187h-80v188h-353l433 500v-429h104v-72zM367 259v231l-200 -231h200z" />
<glyph unicode="5" d="M502 225q0 -103 -75 -168t-186 -65q-109 0 -182 73l56 55q56 -52 133 -52q74 0 124 42.5t50 114.5q0 74 -45.5 115t-122.5 41q-81 0 -146 -48v333h345v-72h-269v-147q30 10 78 10q106 0 173 -64t67 -168z" />
<glyph unicode="6" d="M535 234q0 -98 -72 -170t-170 -72q-101 0 -173 71.5t-72 171.5q0 64 34.5 134.5t89.5 133t101.5 106t93.5 79.5l65 -48q-55 -31 -123.5 -97t-89.5 -95q43 20 93 20q91 0 157 -69t66 -165zM455 231q0 67 -48 115t-116 48q-67 0 -115 -48t-48 -115t48 -115t115 -48 q68 0 116 48t48 115z" />
<glyph unicode="7" d="M549 666l-332 -666h-85l293 594h-333v72h457z" />
<glyph unicode="8" d="M524 190q0 -84 -67 -141t-166 -57t-166 57t-67 141q0 59 33.5 103.5t93.5 64.5q-49 18 -75.5 55t-26.5 87q0 73 60.5 123.5t147.5 50.5t147.5 -50.5t60.5 -123.5q0 -50 -26.5 -87t-75.5 -55q60 -20 93.5 -64.5t33.5 -103.5zM419 496q0 43 -35 72.5t-93 29.5t-93 -29.5 t-35 -72.5q0 -44 35 -73.5t93 -29.5q57 0 92.5 30t35.5 73zM444 191q0 54 -42.5 90t-110.5 36t-110.5 -36t-42.5 -90q0 -51 42.5 -87t110.5 -36t110.5 36t42.5 87z" />
<glyph unicode="9" d="M534 431q0 -64 -34.5 -134.5t-89.5 -133t-101.5 -106t-93.5 -79.5l-65 48q55 31 123.5 97t89.5 95q-43 -20 -93 -20q-91 0 -157 69t-66 165q0 98 72 170t170 72q101 0 173 -71.5t72 -171.5zM454 435q0 67 -48 115t-115 48q-68 0 -116 -48t-48 -115t48 -115t116 -48 q67 0 115 48t48 115z" />
<glyph unicode=":" horiz-adv-x="290" d="M200 337q0 -23 -16 -39t-39 -16t-39 16t-16 39t16 39t39 16t39 -16t16 -39zM200 45q0 -23 -16 -39t-39 -16t-39 16t-16 39t16 39t39 16t39 -16t16 -39z" />
<glyph unicode=";" horiz-adv-x="290" d="M200 337q0 -23 -16 -39t-39 -16t-39 16t-16 39t16 39t39 16t39 -16t16 -39zM202 89l-110 -244h-83l110 244h83z" />
<glyph unicode="&#x3c;" horiz-adv-x="600" d="M554 16l-508 230v62l508 230v-68l-425 -193l425 -193v-68z" />
<glyph unicode="=" horiz-adv-x="600" d="M552 344h-504v68h504v-68zM552 142h-504v68h504v-68z" />
<glyph unicode="&#x3e;" horiz-adv-x="600" d="M554 246l-508 -230v68l425 193l-425 193v68l508 -230v-62z" />
<glyph unicode="?" horiz-adv-x="464" d="M412 536q0 -48 -19 -87.5t-69 -77.5q-54 -42 -72.5 -80t-18.5 -103h-80q0 80 20.5 127t80.5 95q40 32 59 58.5t19 65.5q0 38 -34.5 64t-80.5 26q-77 0 -108 -61l-72 35q51 102 179 102q78 0 137 -45t59 -119zM250 48q0 -23 -16.5 -39.5t-39.5 -16.5t-39.5 16.5 t-16.5 39.5t16.5 39.5t39.5 16.5t39.5 -16.5t16.5 -39.5z" />
<glyph unicode="@" horiz-adv-x="1000" d="M897 409q0 -110 -65 -189.5t-151 -79.5q-54 0 -76.5 28.5t-14.5 73.5q-47 -102 -147 -102q-60 0 -97.5 43.5t-37.5 112.5q0 96 63 170t138 74q47 0 78.5 -24.5t42.5 -61.5l20 70h72l-65 -214q-14 -49 -14 -67q0 -41 44 -41q58 0 101 59.5t43 150.5q0 113 -79.5 180.5 t-212.5 67.5q-153 0 -260.5 -98t-107.5 -248q0 -143 93.5 -223.5t253.5 -80.5q151 0 279 95l32 -44q-49 -42 -137.5 -75t-185.5 -33q-180 0 -291.5 98t-111.5 266q0 166 126 283t301 117q165 0 266 -85t101 -223zM603 411q0 31 -21.5 55t-56.5 24q-53 0 -95 -64t-42 -133 q0 -46 21 -72t54 -26q65 0 103 77q35 75 37 139z" />
<glyph unicode="A" horiz-adv-x="640" d="M640 0h-88l-98 215h-268l-98 -215h-88l320 688zM421 287l-101 219l-101 -219h202z" />
<glyph unicode="B" horiz-adv-x="616" d="M544 190q0 -32 -10.5 -62.5t-33 -60.5t-66 -48.5t-102.5 -18.5h-232v666h232q55 0 95.5 -18t60 -47t28.5 -57t9 -56q0 -49 -25 -86.5t-66 -52.5q52 -20 81 -61t29 -98zM445 487q0 107 -143 107h-122v-214h122q143 0 143 107zM464 190q0 47 -32.5 82.5t-110.5 35.5h-141 v-236h141q78 0 110.5 35.5t32.5 82.5z" />
<glyph unicode="C" horiz-adv-x="652" d="M601 61q-90 -69 -208 -69q-142 0 -241.5 99.5t-99.5 241.5t100 241.5t241 99.5q123 0 208 -71l-48 -60q-76 55 -159 55q-109 0 -185 -77t-76 -188t76 -188t185 -77q80 0 159 54z" />
<glyph unicode="D" horiz-adv-x="702" d="M650 333q0 -142 -97 -237.5t-239 -95.5h-214v666h214q142 0 239 -95.5t97 -237.5zM569 333q0 110 -78 185.5t-189 75.5h-122v-522h122q111 0 189 75.5t78 185.5z" />
<glyph unicode="E" horiz-adv-x="570" d="M492 0h-392v666h392v-72h-312v-221h300v-72h-300v-229h312v-72z" />
<glyph unicode="F" horiz-adv-x="554" d="M492 594h-312v-221h300v-72h-300v-301h-80v666h392v-72z" />
<glyph unicode="G" horiz-adv-x="770" d="M717 330q0 -141 -90.5 -239.5t-233.5 -98.5q-142 0 -241.5 100t-99.5 241t100 241t241 100q162 0 262 -122l-60 -50q-87 96 -202 96q-109 0 -184.5 -77t-75.5 -188t75.5 -188t184.5 -77q104 0 173.5 67.5t69.5 163.5h-241v72h322v-41z" />
<glyph unicode="H" horiz-adv-x="700" d="M600 0h-80v307h-340v-307h-80v666h80v-287h340v287h80v-666z" />
<glyph unicode="I" horiz-adv-x="300" d="M190 0h-80v666h80v-666z" />
<glyph unicode="J" horiz-adv-x="496" d="M400 229q0 -106 -62 -171.5t-162 -65.5q-108 0 -175 87l58 50q46 -61 117 -61q64 0 104 44t40 117v437h80v-437z" />
<glyph unicode="K" horiz-adv-x="650" d="M637 0h-113l-344 333l318 333h105l-314 -329zM180 0h-80v666h80v-666z" />
<glyph unicode="L" horiz-adv-x="526" d="M492 0h-392v666h80v-594h312v-72z" />
<glyph unicode="M" horiz-adv-x="902" d="M879 0h-84l-151 466l-193 -488l-193 488l-151 -466h-84l228 688l200 -505l200 505z" />
<glyph unicode="N" horiz-adv-x="744" d="M644 -22l-464 509v-487h-80v688l464 -509v487h80v-688z" />
<glyph unicode="O" horiz-adv-x="786" d="M734 333q0 -142 -99.5 -241.5t-241.5 -99.5t-241.5 99.5t-99.5 241.5t99.5 241.5t241.5 99.5t241.5 -99.5t99.5 -241.5zM653 333q0 112 -75.5 188.5t-184.5 76.5t-184.5 -76.5t-75.5 -188.5t75.5 -188.5t184.5 -76.5t184.5 76.5t75.5 188.5z" />
<glyph unicode="P" horiz-adv-x="566" d="M517 474q0 -83 -58 -137t-148 -54h-131v-283h-80v666h211q90 0 148 -54.5t58 -137.5zM437 474q0 50 -34.5 85t-92.5 35h-130v-240h130q58 0 92.5 35t34.5 85z" />
<glyph unicode="Q" horiz-adv-x="786" d="M737 -101l-39 -65l-288 159q-11 -1 -17 -1q-142 0 -241.5 99.5t-99.5 241.5t99.5 241.5t241.5 99.5t241.5 -99.5t99.5 -241.5q0 -114 -64 -199t-152 -119zM653 333q0 112 -75.5 188.5t-184.5 76.5t-184.5 -76.5t-75.5 -188.5t75.5 -188.5t184.5 -76.5t184.5 76.5 t75.5 188.5z" />
<glyph unicode="R" horiz-adv-x="612" d="M599 0h-101l-288 346h100q63 0 102.5 34t39.5 90t-39.5 90t-102.5 34h-130v-594h-80v666h217q99 0 157 -55.5t58 -140.5q0 -78 -50 -131t-124 -53z" />
<glyph unicode="S" horiz-adv-x="570" d="M502 192q0 -86 -66 -143t-163 -57q-95 0 -158.5 54.5t-68.5 132.5l78 17q3 -58 45.5 -93t106.5 -35t104.5 34.5t40.5 88.5q0 48 -35.5 75.5t-124.5 48.5q-104 24 -147.5 66t-43.5 108q0 80 62 133t151 53q87 0 143 -45.5t67 -115.5l-78 -17q-8 47 -45 74t-90 27 q-56 0 -92.5 -29.5t-36.5 -74.5q0 -39 32.5 -62.5t115.5 -43.5q111 -27 157 -73.5t46 -122.5z" />
<glyph unicode="T" horiz-adv-x="510" d="M486 594h-191v-594h-80v594h-191v72h462v-72z" />
<glyph unicode="U" horiz-adv-x="716" d="M620 268q0 -125 -76 -200.5t-186 -75.5t-186 75.5t-76 200.5v398h80v-392q0 -93 51 -149.5t131 -56.5t131 56.5t51 149.5v392h80v-398z" />
<glyph unicode="V" horiz-adv-x="640" d="M640 666l-320 -688l-320 688h88l232 -506l232 506h88z" />
<glyph unicode="W" horiz-adv-x="902" d="M879 666l-228 -688l-200 505l-200 -505l-228 688h84l151 -466l193 488l193 -488l151 466h84z" />
<glyph unicode="X" horiz-adv-x="592" d="M584 0h-98l-191 276l-191 -276h-98l240 346l-222 320h98l173 -248l173 248h98l-222 -320z" />
<glyph unicode="Y" horiz-adv-x="556" d="M568 666l-250 -370v-296h-80v296l-250 370h96l194 -283l194 283h96z" />
<glyph unicode="Z" horiz-adv-x="564" d="M531 0h-515l374 594h-343v72h484l-374 -594h374v-72z" />
<glyph unicode="[" horiz-adv-x="340" d="M284 -185h-167v872h167v-66h-92v-740h92v-66z" />
<glyph unicode="\" horiz-adv-x="398" d="M334 -73l-70 -20l-252 832l70 20z" />
<glyph unicode="]" horiz-adv-x="340" d="M223 -185h-167v66h92v740h-92v66h167v-872z" />
<glyph unicode="^" horiz-adv-x="600" d="M512 379h-77l-135 221l-135 -221h-77l212 346z" />
<glyph unicode="_" horiz-adv-x="500" d="M500 -148h-500v73h500v-73z" />
<glyph unicode="`" horiz-adv-x="272" d="M235 578h-80l-128 167l62 39z" />
<glyph unicode="a" horiz-adv-x="546" d="M484 0h-80q-17 30 -17 82q-29 -37 -78 -63.5t-104 -26.5q-72 0 -117 36.5t-45 98.5q0 35 14 63t48.5 57t104 52.5t170.5 39.5q0 43 -31 69t-86 26q-77 0 -145 -52l-48 57q86 71 199 71q35 0 66 -7.5t60.5 -25.5t47 -53.5t17.5 -85.5v-221q0 -70 24 -117zM380 227v44 q-143 -25 -200 -60.5t-57 -83.5q0 -33 29.5 -50t68.5 -17q59 0 109 46t50 121z" />
<glyph unicode="b" horiz-adv-x="642" d="M594 251q0 -106 -74 -182.5t-178 -76.5q-57 0 -104 25.5t-72 64.5v-82h-80v700h80v-280q25 39 72 64.5t104 25.5q104 0 178 -76.5t74 -182.5zM514 251q0 77 -50 130t-124 53t-124 -53t-50 -130t50 -130t124 -53t124 53t50 130z" />
<glyph unicode="c" horiz-adv-x="530" d="M489 67q-74 -75 -183 -75q-107 0 -182.5 76t-75.5 183q0 108 75.5 183.5t183.5 75.5q104 0 182 -75l-57 -55q-56 54 -125 54q-76 0 -127.5 -53t-51.5 -130q0 -76 52 -129.5t125 -53.5q71 0 127 53z" />
<glyph unicode="d" horiz-adv-x="642" d="M556 0h-80v82q-25 -39 -72 -64.5t-104 -25.5q-104 0 -178 76.5t-74 182.5t74 182.5t178 76.5q57 0 104 -25.5t72 -64.5v280h80v-700zM476 251q0 77 -50 130t-124 53t-124 -53t-50 -130t50 -130t124 -53t124 53t50 130z" />
<glyph unicode="e" horiz-adv-x="600" d="M555 254l-2 -35h-422q11 -64 60.5 -107.5t115.5 -43.5q86 0 146 65l57 -52q-78 -89 -203 -89q-107 0 -183 76t-76 183t75.5 183t182.5 76q108 0 178.5 -74.5t70.5 -181.5zM471 290q-14 68 -57 106t-108 38t-113.5 -40.5t-60.5 -103.5h339z" />
<glyph unicode="f" horiz-adv-x="354" d="M408 649l-55 -49q-31 32 -74 32q-98 0 -98 -130h169v-71h-169v-431h-80v431h-83v71h84q0 98 49 152t124 54q79 0 133 -59z" />
<glyph unicode="g" horiz-adv-x="642" d="M556 57q0 -111 -74 -187t-186 -76q-127 0 -204 98l61 48q55 -70 143 -70q76 0 128 54.5t52 144.5v13q-25 -39 -72 -64.5t-104 -25.5q-104 0 -178 76.5t-74 182.5t74 182.5t178 76.5q57 0 104 -25.5t72 -64.5v82h80v-445zM476 251q0 77 -50 130t-124 53t-124 -53t-50 -130 t50 -130t124 -53t124 53t50 130z" />
<glyph unicode="h" horiz-adv-x="604" d="M521 0h-80v283q0 70 -38 110.5t-98 40.5t-99.5 -41t-39.5 -110v-283h-80v700h80v-263q17 29 57.5 51t89.5 22q90 0 149 -59.5t59 -162.5v-288z" />
<glyph unicode="i" horiz-adv-x="272" d="M191 654q0 -22 -16.5 -38.5t-38.5 -16.5t-38.5 16.5t-16.5 38.5t16.5 38.5t38.5 16.5t38.5 -16.5t16.5 -38.5zM176 0h-80v502h80v-502z" />
<glyph unicode="j" horiz-adv-x="272" d="M191 655q0 -23 -16.5 -39t-38.5 -16t-38.5 16t-16.5 39t16.5 39t38.5 16t38.5 -16t16.5 -39zM176 -28q0 -75 -48 -126.5t-122 -51.5q-56 0 -108 42l49 53q27 -19 55 -19q94 0 94 134v498h80v-530z" />
<glyph unicode="k" horiz-adv-x="544" d="M528 0h-105l-257 258l237 244h103l-236 -243zM166 0h-80v700h80v-700z" />
<glyph unicode="l" horiz-adv-x="272" d="M176 0h-80v700h80v-700z" />
<glyph unicode="m" horiz-adv-x="918" d="M834 0h-80v285q0 70 -34.5 109.5t-92.5 39.5q-56 0 -91.5 -40t-35.5 -109v-285h-80v285q0 70 -34.5 109.5t-92.5 39.5q-56 0 -91.5 -40t-35.5 -109v-285h-80v502h80v-63q42 71 137 71q61 0 104 -29t59 -78q21 50 64 78.5t103 28.5q88 0 144.5 -58t56.5 -145v-307z" />
<glyph unicode="n" horiz-adv-x="604" d="M521 0h-80v283q0 70 -38 110.5t-98 40.5t-99.5 -41t-39.5 -110v-283h-80v502h80v-65q17 29 57.5 51t89.5 22q90 0 149 -59.5t59 -162.5v-288z" />
<glyph unicode="o" horiz-adv-x="614" d="M566 251q0 -107 -76 -183t-183 -76t-183 76t-76 183t76 183t183 76t183 -76t76 -183zM486 251q0 77 -51.5 130t-127.5 53t-127.5 -53t-51.5 -130t51.5 -130t127.5 -53t127.5 53t51.5 130z" />
<glyph unicode="p" horiz-adv-x="642" d="M594 251q0 -106 -74 -182.5t-178 -76.5q-57 0 -104 25.5t-72 64.5v-280h-80v700h80v-82q25 39 72 64.5t104 25.5q104 0 178 -76.5t74 -182.5zM514 251q0 77 -50 130t-124 53t-124 -53t-50 -130t50 -130t124 -53t124 53t50 130z" />
<glyph unicode="q" horiz-adv-x="642" d="M556 -198h-80v280q-25 -39 -72 -64.5t-104 -25.5q-104 0 -178 76.5t-74 182.5t74 182.5t178 76.5q57 0 104 -25.5t72 -64.5v82h80v-700zM476 251q0 77 -50 130t-124 53t-124 -53t-50 -130t50 -130t124 -53t124 53t50 130z" />
<glyph unicode="r" horiz-adv-x="354" d="M336 432q-87 -12 -128.5 -68t-41.5 -132v-232h-80v502h80v-88q52 88 170 96v-78z" />
<glyph unicode="s" horiz-adv-x="504" d="M443 146q0 -67 -56.5 -110.5t-144.5 -43.5q-85 0 -138.5 42t-59.5 110l81 17q2 -47 36.5 -70t88.5 -23q50 0 81.5 21.5t31.5 56.5q0 31 -31 48.5t-103 31.5q-92 19 -128.5 52t-36.5 85q0 62 54 104.5t133 42.5t127 -36.5t60 -98.5l-80 -16q-17 75 -114 75q-44 0 -72 -19 t-28 -47q0 -25 29 -40t97 -29q97 -20 135 -56.5t38 -96.5z" />
<glyph unicode="t" horiz-adv-x="342" d="M327 431h-134v-431h-80v431h-101v71h101v164h80v-164h134v-71z" />
<glyph unicode="u" horiz-adv-x="604" d="M518 0h-80v65q-17 -29 -57.5 -51t-89.5 -22q-90 0 -149 59.5t-59 162.5v288h80v-283q0 -70 38 -110.5t98 -40.5t99.5 41t39.5 110v283h80v-502z" />
<glyph unicode="v" horiz-adv-x="516" d="M511 502l-253 -530l-253 530h88l165 -352l165 352h88z" />
<glyph unicode="w" horiz-adv-x="800" d="M774 502l-206 -530l-168 384l-168 -384l-206 530h84l127 -338l163 366l163 -366l127 338h84z" />
<glyph unicode="x" horiz-adv-x="480" d="M470 0h-95l-135 189l-135 -189h-95l182 256l-176 246h95l129 -180l129 180h95l-176 -246z" />
<glyph unicode="y" horiz-adv-x="530" d="M524 502l-346 -704h-88l131 267l-216 437h88l172 -354l171 354h88z" />
<glyph unicode="z" horiz-adv-x="464" d="M422 0h-406l271 430h-246v72h381l-271 -430h271v-72z" />
<glyph unicode="{" horiz-adv-x="340" d="M290 -184q-12 -1 -24 -1q-77 0 -109.5 34t-32.5 113v166q0 46 -15 66.5t-57 27.5v56q43 8 57.5 28t14.5 66v177q0 73 33.5 105.5t109.5 32.5q12 0 23 -1v-56q-61 -1 -76 -17.5t-15 -80.5v-165q0 -47 -15 -72t-51 -45q35 -19 50.5 -46t15.5 -73v-159q0 -66 15 -83t76 -17 v-56z" />
<glyph unicode="|" horiz-adv-x="222" d="M145 -200h-68v1000h68v-1000z" />
<glyph unicode="}" horiz-adv-x="340" d="M288 227q-42 -7 -57 -27.5t-15 -66.5v-166q0 -79 -32.5 -113t-109.5 -34q-12 0 -24 1v56q61 0 76 17t15 83v159q0 46 15.5 73t50.5 46q-36 20 -51 45t-15 72v165q0 64 -15 80.5t-76 17.5v56q11 1 23 1q76 0 109.5 -32.5t33.5 -105.5v-177q0 -46 14.5 -66t57.5 -28v-56z " />
<glyph unicode="~" horiz-adv-x="600" d="M546 321q-47 -116 -138 -116q-42 0 -108 36t-109 36q-50 0 -84 -74l-53 30q46 112 142 112q46 0 120 -36t93 -36q26 0 48 23t36 55z" />
<glyph unicode="&#xa1;" horiz-adv-x="290" d="M200 455q0 -23 -16 -39t-39 -16t-39 16t-16 39t16 39t39 16t39 -16t16 -39zM185 -198h-80v512h80v-512z" />
<glyph unicode="&#xa2;" d="M507 154q-68 -69 -164 -74v-98h-64v101q-91 16 -152 88t-61 167t60.5 167t152.5 88v89h64v-86q91 -4 164 -74l-57 -55q-49 47 -107 53v-364q58 6 107 52zM279 161v354q-59 -15 -96 -63.5t-37 -113.5q0 -63 37.5 -112.5t95.5 -64.5z" />
<glyph unicode="&#xa3;" d="M521 605l-57 -55q-21 21 -53.5 34.5t-64.5 13.5q-65 0 -103 -40t-38 -88q0 -24 6.5 -50t12.5 -40l7 -14h200v-70h-175q22 -45 22 -104q0 -63 -42 -120h276v-72h-438v72h78q46 51 46 120q0 20 -6.5 46t-13.5 42l-6 16h-116v70h91q-22 46 -22 104q0 93 67.5 148.5 t153.5 55.5q106 0 175 -69z" />
<glyph unicode="&#xa4;" d="M519 512l-91 -90q27 -41 27 -90t-27 -90l91 -90l-48 -48l-91 90q-40 -26 -89 -26q-51 0 -89 26l-91 -90l-48 48l91 90q-27 41 -27 90t27 90l-91 90l48 48l91 -91q40 27 89 27q48 0 89 -27l91 91zM383 332q0 38 -27 65t-65 27t-65 -27t-27 -65t27 -65t65 -27t65 27t27 65z " />
<glyph unicode="&#xa5;" d="M552 666l-187 -313h143v-57h-177v-87h169v-57h-169v-152h-80v152h-169v57h169v87h-177v57h143l-187 313h92l169 -283l169 283h92z" />
<glyph unicode="&#xa6;" horiz-adv-x="222" d="M145 425h-68v250h68v-250zM145 -75h-68v250h68v-250z" />
<glyph unicode="&#xa7;" d="M527 214q0 -47 -28.5 -87.5t-73.5 -57.5q58 -43 58 -118q0 -70 -52 -113.5t-132 -43.5q-81 0 -133 43.5t-62 122.5l77 18q3 -51 36 -80.5t80 -29.5q40 0 73 22t33 60q0 17 -8 32.5t-18 26.5t-31.5 25.5t-35 22t-43.5 23t-42 22.5q-39 21 -63.5 37.5t-52.5 42t-41.5 57 t-13.5 69.5q0 45 30.5 84.5t74.5 51.5q-45 47 -45 104q0 73 54.5 116.5t127.5 43.5q79 0 125.5 -41t55.5 -117l-77 -18q0 41 -30.5 71.5t-75.5 30.5q-42 0 -71 -22t-29 -63q0 -13 4.5 -25t15.5 -23.5t20.5 -20t28.5 -20t30.5 -18t35.5 -19t35 -18.5q76 -41 119.5 -84.5 t43.5 -106.5zM447 202q0 66 -105 123q-109 60 -136 77q-29 -10 -50.5 -35.5t-21.5 -54.5q0 -42 28.5 -71t75.5 -56q15 -9 63.5 -33.5t74.5 -41.5q31 13 51 37t20 55z" />
<glyph unicode="&#xa8;" horiz-adv-x="272" d="M291 654q0 -22 -16.5 -38.5t-38.5 -16.5t-38.5 16.5t-16.5 38.5t16.5 38.5t38.5 16.5t38.5 -16.5t16.5 -38.5zM91 654q0 -22 -16.5 -38.5t-38.5 -16.5t-38.5 16.5t-16.5 38.5t16.5 38.5t38.5 16.5t38.5 -16.5t16.5 -38.5z" />
<glyph unicode="&#xa9;" horiz-adv-x="786" d="M734 333q0 -141 -100 -241t-241 -100t-241 100t-100 241t100 241t241 100t241 -100t100 -241zM673 333q0 115 -82.5 197.5t-197.5 82.5t-197.5 -82.5t-82.5 -197.5t82.5 -197.5t197.5 -82.5t197.5 82.5t82.5 197.5zM540 195q-55 -58 -137 -58q-81 0 -138 57.5t-57 138.5 t57 137t138 56q77 0 137 -55l-43 -43q-43 41 -94 41q-56 0 -95 -39.5t-39 -96.5q0 -58 39 -98.5t94 -40.5q54 0 95 40z" />
<glyph unicode="&#xaa;" horiz-adv-x="414" d="M351 362h-66q-9 19 -11 38q-41 -43 -105 -43q-48 0 -77 23t-29 63q0 45 43.5 78t162.5 52q-2 20 -19.5 32.5t-45.5 12.5q-42 0 -90 -34l-36 43q56 47 129 47q51 0 87.5 -24.5t36.5 -82.5v-130q0 -39 20 -75zM353 255h-300v52h300v-52zM269 504v19q-82 -15 -113 -34 t-31 -47q0 -17 16 -25.5t38 -8.5q35 0 62.5 26t27.5 70z" />
<glyph unicode="&#xab;" d="M512 79l-43 -41l-212 218l212 218l43 -41l-148 -177zM296 79l-43 -41l-212 218l212 218l43 -41l-148 -177z" />
<glyph unicode="&#xac;" horiz-adv-x="600" d="M552 133h-68v211h-436v68h504v-279z" />
<glyph unicode="&#xad;" horiz-adv-x="345" d="M297 220h-249v71h249v-71z" />
<glyph unicode="&#xae;" horiz-adv-x="596" d="M519 515q0 -90 -64.5 -153.5t-155.5 -63.5q-92 0 -156.5 63t-64.5 154t64.5 154.5t156.5 63.5q91 0 155.5 -63.5t64.5 -154.5zM469 515q0 71 -49.5 121t-120.5 50t-121.5 -50t-50.5 -121t50.5 -121t121.5 -50q70 0 120 50t50 121zM413 394h-58l-92 134h45q40 0 40 31 q0 32 -40 32h-49v-197h-49v242h107q37 0 58.5 -21.5t21.5 -53.5q0 -24 -14.5 -43.5t-37.5 -24.5z" />
<glyph unicode="&#xaf;" horiz-adv-x="272" d="M272 613h-272v70h272v-70z" />
<glyph unicode="&#xb0;" horiz-adv-x="500" d="M399 559q0 -61 -43.5 -105t-105.5 -44t-105.5 44t-43.5 105t43.5 105t105.5 44t105.5 -44t43.5 -105zM334 559q0 35 -25 59.5t-59 24.5t-59 -24.5t-25 -59.5t25 -59.5t59 -24.5t59 24.5t25 59.5z" />
<glyph unicode="&#xb1;" horiz-adv-x="600" d="M552 295h-218v-191h-68v191h-218v68h218v191h68v-191h218v-68zM552 0h-504v68h504v-68z" />
<glyph unicode="&#xb2;" horiz-adv-x="386" d="M328 271h-300l192 203q44 47 44 76q0 28 -22 48t-54 20q-49 0 -78 -54l-50 27q40 83 129 83q60 0 98.5 -35.5t38.5 -88.5q0 -50 -55 -109l-110 -116h167v-54z" />
<glyph unicode="&#xb3;" horiz-adv-x="386" d="M333 392q0 -53 -44 -89.5t-109 -36.5q-87 0 -136 67l53 30q28 -41 87 -41q36 0 61 20t25 49t-27 48t-64 19h-59v54h40q95 0 95 53q0 24 -20.5 38.5t-49.5 14.5q-46 0 -70 -33l-55 30q50 59 123 59q59 0 96.5 -31.5t37.5 -77.5q0 -51 -49 -78q65 -30 65 -95z" />
<glyph unicode="&#xb4;" horiz-adv-x="272" d="M265 745l-128 -167h-80l146 206z" />
<glyph unicode="&#xb6;" d="M569 630h-75v-794h-72v794h-78v-794h-174v70h102v379q-44 0 -85.5 11.5t-77.5 35t-57.5 65t-21.5 96.5q0 105 72.5 156t169.5 51h297v-70zM272 361v263q-45 -1 -71.5 -38t-26.5 -93t26.5 -93.5t71.5 -38.5z" />
<glyph unicode="&#xb7;" horiz-adv-x="290" d="M200 255q0 -23 -16 -39t-39 -16t-39 16t-16 39t16 39t39 16t39 -16t16 -39z" />
<glyph unicode="&#xb8;" horiz-adv-x="272" d="M246 -138q0 -12 -6 -25t-21.5 -27.5t-48.5 -24t-80 -9.5l-62 4l22 42q19 -2 43 -2q77 0 77 40q0 39 -102 39l47 109h52l-28 -66q43 0 75 -19t32 -61z" />
<glyph unicode="&#xb9;" horiz-adv-x="336" d="M205 272h-62v337l-82 -30l-22 49l128 46h38v-402z" />
<glyph unicode="&#xba;" horiz-adv-x="414" d="M365 515q0 -66 -46 -112t-112 -46t-112 46t-46 112t46 112t112 46t112 -46t46 -112zM357 255h-300v52h300v-52zM303 515q0 41 -28 69.5t-68 28.5t-68 -28.5t-28 -69.5t28 -69.5t68 -28.5t68 28.5t28 69.5z" />
<glyph unicode="&#xbb;" d="M541 256l-212 -218l-43 41l148 177l-148 177l43 41zM325 256l-212 -218l-43 41l148 177l-148 177l43 41z" />
<glyph unicode="&#xbc;" horiz-adv-x="774" d="M713 108h-66v-108h-62v109h-229l291 311v-258h66v-54zM582 674l-377 -682h-63l377 682h63zM205 272h-62v337l-82 -30l-22 49l128 46h38v-402zM585 162v113l-107 -113h107z" />
<glyph unicode="&#xbd;" horiz-adv-x="774" d="M713 0h-300l192 203q44 47 44 76q0 28 -22 48t-54 20q-49 0 -78 -54l-50 27q40 83 129 83q60 0 98.5 -35.5t38.5 -88.5q0 -50 -55 -109l-110 -116h167v-54zM564 674l-377 -682h-63l377 682h63zM205 272h-62v337l-82 -30l-22 49l128 46h38v-402z" />
<glyph unicode="&#xbe;" horiz-adv-x="774" d="M734 108h-66v-108h-62v109h-229l291 311v-258h66v-54zM627 674l-377 -682h-63l377 682h63zM333 392q0 -53 -44 -89.5t-109 -36.5q-87 0 -136 67l53 30q28 -41 87 -41q36 0 61 20t25 49t-27 48t-64 19h-59v54h40q95 0 95 53q0 24 -20.5 38.5t-49.5 14.5q-46 0 -70 -33 l-55 30q50 59 123 59q59 0 96.5 -31.5t37.5 -77.5q0 -51 -49 -78q65 -30 65 -95zM606 162v113l-107 -113h107z" />
<glyph unicode="&#xbf;" horiz-adv-x="464" d="M326 454q0 -23 -16.5 -39.5t-39.5 -16.5t-39.5 16.5t-16.5 39.5t16.5 39.5t39.5 16.5t39.5 -16.5t16.5 -39.5zM427 -96q-51 -102 -179 -102q-78 0 -137 45t-59 119q0 48 19 87.5t69 77.5q54 42 72.5 80t18.5 103h80q0 -80 -20.5 -127t-80.5 -95q-40 -32 -59 -58.5 t-19 -65.5q0 -38 34.5 -64t80.5 -26q77 0 108 61z" />
<glyph unicode="&#xc0;" horiz-adv-x="640" d="M640 0h-88l-98 215h-268l-98 -215h-88l320 688zM421 287l-101 219l-101 -219h202zM389 722h-80l-128 167l62 39z" />
<glyph unicode="&#xc1;" horiz-adv-x="640" d="M640 0h-88l-98 215h-268l-98 -215h-88l320 688zM421 287l-101 219l-101 -219h202zM449 889l-128 -167h-80l146 206z" />
<glyph unicode="&#xc2;" horiz-adv-x="640" d="M640 0h-88l-98 215h-268l-98 -215h-88l320 688zM421 287l-101 219l-101 -219h202zM466 722h-80l-66 98l-66 -98h-80l146 206z" />
<glyph unicode="&#xc3;" horiz-adv-x="640" d="M640 0h-88l-98 215h-268l-98 -215h-88l320 688zM421 287l-101 219l-101 -219h202zM468 840q-2 -50 -26.5 -77.5t-61.5 -27.5q-26 0 -65 20.5t-52 20.5q-31 0 -34 -41l-55 9q1 48 25.5 76.5t59.5 28.5q25 0 67 -21t54 -21q32 0 34 42z" />
<glyph unicode="&#xc4;" horiz-adv-x="640" d="M640 0h-88l-98 215h-268l-98 -215h-88l320 688zM421 287l-101 219l-101 -219h202zM475 798q0 -22 -16.5 -38.5t-38.5 -16.5t-38.5 16.5t-16.5 38.5t16.5 38.5t38.5 16.5t38.5 -16.5t16.5 -38.5zM275 798q0 -22 -16.5 -38.5t-38.5 -16.5t-38.5 16.5t-16.5 38.5t16.5 38.5 t38.5 16.5t38.5 -16.5t16.5 -38.5z" />
<glyph unicode="&#xc5;" horiz-adv-x="640" d="M640 0h-88l-98 215h-268l-98 -215h-88l320 688zM421 287l-101 219l-101 -219h202zM436 832q0 -48 -34 -82t-82 -34t-82 34t-34 82t34 82t82 34t82 -34t34 -82zM380 832q0 25 -17.5 42.5t-42.5 17.5t-42.5 -17.5t-17.5 -42.5t17.5 -42.5t42.5 -17.5t42.5 17.5t17.5 42.5z " />
<glyph unicode="&#xc6;" horiz-adv-x="864" d="M786 0h-377v301h-176l-175 -301h-87l387 666h428v-72h-297v-221h285v-72h-285v-229h297v-72zM409 373v231l-134 -231h134z" />
<glyph unicode="&#xc7;" horiz-adv-x="652" d="M601 61q-90 -69 -208 -69h-8l-21 -50q43 0 75 -19t32 -61q0 -12 -6 -25t-21.5 -27.5t-48.5 -24t-80 -9.5l-62 4l22 42q19 -2 43 -2q77 0 77 40q0 39 -102 39l42 98q-122 20 -202.5 115t-80.5 221q0 142 100 241.5t241 99.5q123 0 208 -71l-48 -60q-76 55 -159 55 q-109 0 -185 -77t-76 -188t76 -188t185 -77q80 0 159 54z" />
<glyph unicode="&#xc8;" horiz-adv-x="570" d="M492 0h-392v666h392v-72h-312v-221h300v-72h-300v-229h312v-72zM395 722h-80l-128 167l62 39z" />
<glyph unicode="&#xc9;" horiz-adv-x="570" d="M492 0h-392v666h392v-72h-312v-221h300v-72h-300v-229h312v-72zM414 889l-128 -167h-80l146 206z" />
<glyph unicode="&#xca;" horiz-adv-x="570" d="M492 0h-392v666h392v-72h-312v-221h300v-72h-300v-229h312v-72zM442 722h-80l-66 98l-66 -98h-80l146 206z" />
<glyph unicode="&#xcb;" horiz-adv-x="570" d="M492 0h-392v666h392v-72h-312v-221h300v-72h-300v-229h312v-72zM451 798q0 -22 -16.5 -38.5t-38.5 -16.5t-38.5 16.5t-16.5 38.5t16.5 38.5t38.5 16.5t38.5 -16.5t16.5 -38.5zM251 798q0 -22 -16.5 -38.5t-38.5 -16.5t-38.5 16.5t-16.5 38.5t16.5 38.5t38.5 16.5 t38.5 -16.5t16.5 -38.5z" />
<glyph unicode="&#xcc;" horiz-adv-x="300" d="M190 0h-80v666h80v-666zM249 722h-80l-128 167l62 39z" />
<glyph unicode="&#xcd;" horiz-adv-x="300" d="M190 0h-80v666h80v-666zM279 889l-128 -167h-80l146 206z" />
<glyph unicode="&#xce;" horiz-adv-x="300" d="M190 0h-80v666h80v-666zM296 722h-80l-66 98l-66 -98h-80l146 206z" />
<glyph unicode="&#xcf;" horiz-adv-x="300" d="M190 0h-80v666h80v-666zM305 798q0 -22 -16.5 -38.5t-38.5 -16.5t-38.5 16.5t-16.5 38.5t16.5 38.5t38.5 16.5t38.5 -16.5t16.5 -38.5zM105 798q0 -22 -16.5 -38.5t-38.5 -16.5t-38.5 16.5t-16.5 38.5t16.5 38.5t38.5 16.5t38.5 -16.5t16.5 -38.5z" />
<glyph unicode="&#xd0;" horiz-adv-x="702" d="M650 333q0 -142 -97 -237.5t-239 -95.5h-214v307h-100v72h100v287h214q142 0 239 -95.5t97 -237.5zM569 333q0 110 -78 185.5t-189 75.5h-122v-215h175v-72h-175v-235h122q111 0 189 75.5t78 185.5z" />
<glyph unicode="&#xd1;" horiz-adv-x="744" d="M644 -22l-464 509v-487h-80v688l464 -509v487h80v-688zM520 840q-2 -50 -26.5 -77.5t-61.5 -27.5q-26 0 -65 20.5t-52 20.5q-31 0 -34 -41l-55 9q1 48 25.5 76.5t59.5 28.5q25 0 67 -21t54 -21q32 0 34 42z" />
<glyph unicode="&#xd2;" horiz-adv-x="786" d="M734 333q0 -142 -99.5 -241.5t-241.5 -99.5t-241.5 99.5t-99.5 241.5t99.5 241.5t241.5 99.5t241.5 -99.5t99.5 -241.5zM653 333q0 112 -75.5 188.5t-184.5 76.5t-184.5 -76.5t-75.5 -188.5t75.5 -188.5t184.5 -76.5t184.5 76.5t75.5 188.5zM492 722h-80l-128 167l62 39z " />
<glyph unicode="&#xd3;" horiz-adv-x="786" d="M734 333q0 -142 -99.5 -241.5t-241.5 -99.5t-241.5 99.5t-99.5 241.5t99.5 241.5t241.5 99.5t241.5 -99.5t99.5 -241.5zM653 333q0 112 -75.5 188.5t-184.5 76.5t-184.5 -76.5t-75.5 -188.5t75.5 -188.5t184.5 -76.5t184.5 76.5t75.5 188.5zM532 889l-128 -167h-80 l146 206z" />
<glyph unicode="&#xd4;" horiz-adv-x="786" d="M734 333q0 -142 -99.5 -241.5t-241.5 -99.5t-241.5 99.5t-99.5 241.5t99.5 241.5t241.5 99.5t241.5 -99.5t99.5 -241.5zM653 333q0 112 -75.5 188.5t-184.5 76.5t-184.5 -76.5t-75.5 -188.5t75.5 -188.5t184.5 -76.5t184.5 76.5t75.5 188.5zM539 722h-80l-66 98l-66 -98 h-80l146 206z" />
<glyph unicode="&#xd5;" horiz-adv-x="786" d="M734 333q0 -142 -99.5 -241.5t-241.5 -99.5t-241.5 99.5t-99.5 241.5t99.5 241.5t241.5 99.5t241.5 -99.5t99.5 -241.5zM653 333q0 112 -75.5 188.5t-184.5 76.5t-184.5 -76.5t-75.5 -188.5t75.5 -188.5t184.5 -76.5t184.5 76.5t75.5 188.5zM551 840q-2 -50 -26.5 -77.5 t-61.5 -27.5q-25 0 -64 20.5t-53 20.5q-31 0 -34 -41l-55 9q1 48 25.5 76.5t59.5 28.5q24 0 66 -21t55 -21q14 0 23.5 11t10.5 31z" />
<glyph unicode="&#xd6;" horiz-adv-x="786" d="M734 333q0 -142 -99.5 -241.5t-241.5 -99.5t-241.5 99.5t-99.5 241.5t99.5 241.5t241.5 99.5t241.5 -99.5t99.5 -241.5zM653 333q0 112 -75.5 188.5t-184.5 76.5t-184.5 -76.5t-75.5 -188.5t75.5 -188.5t184.5 -76.5t184.5 76.5t75.5 188.5zM548 798q0 -22 -16 -38.5 t-39 -16.5t-39 16.5t-16 38.5t16 38.5t39 16.5t39 -16.5t16 -38.5zM348 798q0 -22 -16 -38.5t-39 -16.5t-39 16.5t-16 38.5t16 38.5t39 16.5t39 -16.5t16 -38.5z" />
<glyph unicode="&#xd7;" horiz-adv-x="600" d="M530 96l-48 -48l-181 182l-182 -182l-48 48l182 182l-181 180l48 48l181 -180l180 180l48 -48l-180 -180z" />
<glyph unicode="&#xd8;" horiz-adv-x="786" d="M746 700l-108 -130q96 -98 96 -237q0 -142 -99.5 -241.5t-241.5 -99.5q-102 0 -188 56l-68 -82h-96l107 129q-96 101 -96 238q0 142 99.5 241.5t241.5 99.5q103 0 189 -56l68 82h96zM653 333q0 102 -65 177l-334 -403q65 -39 139 -39q109 0 184.5 76.5t75.5 188.5z M532 558q-64 40 -139 40q-109 0 -184.5 -76.5t-75.5 -188.5q0 -105 66 -177z" />
<glyph unicode="&#xd9;" horiz-adv-x="716" d="M620 268q0 -125 -76 -200.5t-186 -75.5t-186 75.5t-76 200.5v398h80v-392q0 -93 51 -149.5t131 -56.5t131 56.5t51 149.5v392h80v-398zM457 722h-80l-128 167l62 39z" />
<glyph unicode="&#xda;" horiz-adv-x="716" d="M620 268q0 -125 -76 -200.5t-186 -75.5t-186 75.5t-76 200.5v398h80v-392q0 -93 51 -149.5t131 -56.5t131 56.5t51 149.5v392h80v-398zM487 889l-128 -167h-80l146 206z" />
<glyph unicode="&#xdb;" horiz-adv-x="716" d="M620 268q0 -125 -76 -200.5t-186 -75.5t-186 75.5t-76 200.5v398h80v-392q0 -93 51 -149.5t131 -56.5t131 56.5t51 149.5v392h80v-398zM504 722h-80l-66 98l-66 -98h-80l146 206z" />
<glyph unicode="&#xdc;" horiz-adv-x="716" d="M620 268q0 -125 -76 -200.5t-186 -75.5t-186 75.5t-76 200.5v398h80v-392q0 -93 51 -149.5t131 -56.5t131 56.5t51 149.5v392h80v-398zM513 798q0 -22 -16.5 -38.5t-38.5 -16.5t-38.5 16.5t-16.5 38.5t16.5 38.5t38.5 16.5t38.5 -16.5t16.5 -38.5zM313 798 q0 -22 -16.5 -38.5t-38.5 -16.5t-38.5 16.5t-16.5 38.5t16.5 38.5t38.5 16.5t38.5 -16.5t16.5 -38.5z" />
<glyph unicode="&#xdd;" horiz-adv-x="556" d="M568 666l-250 -370v-296h-80v296l-250 370h96l194 -283l194 283h96zM450 889l-128 -167h-80l146 206z" />
<glyph unicode="&#xde;" horiz-adv-x="566" d="M517 335q0 -83 -58 -137t-148 -54h-131v-144h-80v666h80v-139h131q90 0 148 -54.5t58 -137.5zM437 335q0 50 -34.5 85t-92.5 35h-130v-240h130q58 0 92.5 35t34.5 85z" />
<glyph unicode="&#xdf;" horiz-adv-x="558" d="M509 210q0 -100 -62 -161t-162 -61l-35 4v72q16 -3 33 -3q66 0 106 38t40 100q0 88 -43.5 117t-135.5 29v65q66 -3 107 23.5t41 89.5q0 45 -32.5 77t-82.5 32q-56 0 -86.5 -30t-30.5 -105v-497h-80v514q0 87 52.5 140.5t138.5 53.5q78 0 139.5 -46.5t61.5 -126.5 q0 -116 -101 -150v-2q62 -7 97 -56.5t35 -116.5z" />
<glyph unicode="&#xe0;" horiz-adv-x="546" d="M484 0h-80q-17 30 -17 82q-29 -37 -78 -63.5t-104 -26.5q-72 0 -117 36.5t-45 98.5q0 35 14 63t48.5 57t104 52.5t170.5 39.5q0 43 -31 69t-86 26q-77 0 -145 -52l-48 57q86 71 199 71q35 0 66 -7.5t60.5 -25.5t47 -53.5t17.5 -85.5v-221q0 -70 24 -117zM380 227v44 q-143 -25 -200 -60.5t-57 -83.5q0 -33 29.5 -50t68.5 -17q59 0 109 46t50 121zM370 578h-80l-128 167l62 39z" />
<glyph unicode="&#xe1;" horiz-adv-x="546" d="M484 0h-80q-17 30 -17 82q-29 -37 -78 -63.5t-104 -26.5q-72 0 -117 36.5t-45 98.5q0 35 14 63t48.5 57t104 52.5t170.5 39.5q0 43 -31 69t-86 26q-77 0 -145 -52l-48 57q86 71 199 71q35 0 66 -7.5t60.5 -25.5t47 -53.5t17.5 -85.5v-221q0 -70 24 -117zM380 227v44 q-143 -25 -200 -60.5t-57 -83.5q0 -33 29.5 -50t68.5 -17q59 0 109 46t50 121zM400 745l-128 -167h-80l146 206z" />
<glyph unicode="&#xe2;" horiz-adv-x="546" d="M484 0h-80q-17 30 -17 82q-29 -37 -78 -63.5t-104 -26.5q-72 0 -117 36.5t-45 98.5q0 35 14 63t48.5 57t104 52.5t170.5 39.5q0 43 -31 69t-86 26q-77 0 -145 -52l-48 57q86 71 199 71q35 0 66 -7.5t60.5 -25.5t47 -53.5t17.5 -85.5v-221q0 -70 24 -117zM380 227v44 q-143 -25 -200 -60.5t-57 -83.5q0 -33 29.5 -50t68.5 -17q59 0 109 46t50 121zM417 578h-80l-66 98l-66 -98h-80l146 206z" />
<glyph unicode="&#xe3;" horiz-adv-x="546" d="M484 0h-80q-17 30 -17 82q-29 -37 -78 -63.5t-104 -26.5q-72 0 -117 36.5t-45 98.5q0 35 14 63t48.5 57t104 52.5t170.5 39.5q0 43 -31 69t-86 26q-77 0 -145 -52l-48 57q86 71 199 71q35 0 66 -7.5t60.5 -25.5t47 -53.5t17.5 -85.5v-221q0 -70 24 -117zM380 227v44 q-143 -25 -200 -60.5t-57 -83.5q0 -33 29.5 -50t68.5 -17q59 0 109 46t50 121zM419 696q-2 -50 -26.5 -77.5t-61.5 -27.5q-25 0 -64.5 20.5t-52.5 20.5q-31 0 -34 -41l-55 9q1 48 25.5 76.5t59.5 28.5q24 0 66 -21t55 -21q14 0 23.5 11t10.5 31z" />
<glyph unicode="&#xe4;" horiz-adv-x="546" d="M484 0h-80q-17 30 -17 82q-29 -37 -78 -63.5t-104 -26.5q-72 0 -117 36.5t-45 98.5q0 35 14 63t48.5 57t104 52.5t170.5 39.5q0 43 -31 69t-86 26q-77 0 -145 -52l-48 57q86 71 199 71q35 0 66 -7.5t60.5 -25.5t47 -53.5t17.5 -85.5v-221q0 -70 24 -117zM380 227v44 q-143 -25 -200 -60.5t-57 -83.5q0 -33 29.5 -50t68.5 -17q59 0 109 46t50 121zM426 654q0 -22 -16 -38.5t-39 -16.5t-39 16.5t-16 38.5t16 38.5t39 16.5t39 -16.5t16 -38.5zM226 654q0 -22 -16 -38.5t-39 -16.5t-39 16.5t-16 38.5t16 38.5t39 16.5t39 -16.5t16 -38.5z" />
<glyph unicode="&#xe5;" horiz-adv-x="546" d="M484 0h-80q-17 30 -17 82q-29 -37 -78 -63.5t-104 -26.5q-72 0 -117 36.5t-45 98.5q0 35 14 63t48.5 57t104 52.5t170.5 39.5q0 43 -31 69t-86 26q-77 0 -145 -52l-48 57q86 71 199 71q35 0 66 -7.5t60.5 -25.5t47 -53.5t17.5 -85.5v-221q0 -70 24 -117zM380 227v44 q-143 -25 -200 -60.5t-57 -83.5q0 -33 29.5 -50t68.5 -17q59 0 109 46t50 121zM382 694q0 -48 -34 -82t-82 -34t-82 34t-34 82t34 82t82 34t82 -34t34 -82zM326 694q0 25 -17.5 42.5t-42.5 17.5t-42.5 -17.5t-17.5 -42.5t17.5 -42.5t42.5 -17.5t42.5 17.5t17.5 42.5z" />
<glyph unicode="&#xe6;" horiz-adv-x="916" d="M859 254l-2 -35h-397q0 -63 48 -107t115 -44q86 0 146 65l57 -52q-78 -89 -203 -89q-131 0 -205 112q-82 -112 -213 -112q-72 0 -117 36.5t-45 98.5q0 35 14 63t48.5 57t104 52.5t170.5 39.5q0 43 -31 69t-86 26q-77 0 -145 -52l-48 57q86 71 199 71q125 0 171 -82 q72 82 182 82q101 0 169 -65.5t68 -190.5zM775 290q0 66 -43 105t-110 39q-66 0 -114 -41.5t-48 -102.5h315zM380 227v44q-143 -25 -200 -60.5t-57 -83.5q0 -33 29.5 -50t68.5 -17q59 0 109 46t50 121z" />
<glyph unicode="&#xe7;" horiz-adv-x="530" d="M489 67q-74 -75 -184 -75l-21 -50q43 0 75 -19t32 -61q0 -12 -6 -25t-21.5 -27.5t-48.5 -24t-80 -9.5l-62 4l22 42q19 -2 43 -2q77 0 77 40q0 39 -102 39l42 98q-89 18 -148 89.5t-59 164.5q0 108 75.5 183.5t183.5 75.5q104 0 182 -75l-57 -55q-56 54 -125 54 q-76 0 -127.5 -53t-51.5 -130q0 -76 52 -129.5t125 -53.5q71 0 127 53z" />
<glyph unicode="&#xe8;" horiz-adv-x="600" d="M555 254l-2 -35h-422q11 -64 60.5 -107.5t115.5 -43.5q86 0 146 65l57 -52q-78 -89 -203 -89q-107 0 -183 76t-76 183t75.5 183t182.5 76q108 0 178.5 -74.5t70.5 -181.5zM471 290q-14 68 -57 106t-108 38t-113.5 -40.5t-60.5 -103.5h339zM411 578h-80l-128 167l62 39z " />
<glyph unicode="&#xe9;" horiz-adv-x="600" d="M555 254l-2 -35h-422q11 -64 60.5 -107.5t115.5 -43.5q86 0 146 65l57 -52q-78 -89 -203 -89q-107 0 -183 76t-76 183t75.5 183t182.5 76q108 0 178.5 -74.5t70.5 -181.5zM471 290q-14 68 -57 106t-108 38t-113.5 -40.5t-60.5 -103.5h339zM441 745l-128 -167h-80l146 206 z" />
<glyph unicode="&#xea;" horiz-adv-x="600" d="M555 254l-2 -35h-422q11 -64 60.5 -107.5t115.5 -43.5q86 0 146 65l57 -52q-78 -89 -203 -89q-107 0 -183 76t-76 183t75.5 183t182.5 76q108 0 178.5 -74.5t70.5 -181.5zM471 290q-14 68 -57 106t-108 38t-113.5 -40.5t-60.5 -103.5h339zM458 578h-80l-66 98l-66 -98 h-80l146 206z" />
<glyph unicode="&#xeb;" horiz-adv-x="600" d="M555 254l-2 -35h-422q11 -64 60.5 -107.5t115.5 -43.5q86 0 146 65l57 -52q-78 -89 -203 -89q-107 0 -183 76t-76 183t75.5 183t182.5 76q108 0 178.5 -74.5t70.5 -181.5zM471 290q-14 68 -57 106t-108 38t-113.5 -40.5t-60.5 -103.5h339zM465 654q0 -22 -16.5 -38.5 t-38.5 -16.5t-38.5 16.5t-16.5 38.5t16.5 38.5t38.5 16.5t38.5 -16.5t16.5 -38.5zM265 654q0 -22 -16.5 -38.5t-38.5 -16.5t-38.5 16.5t-16.5 38.5t16.5 38.5t38.5 16.5t38.5 -16.5t16.5 -38.5z" />
<glyph unicode="&#xec;" horiz-adv-x="272" d="M176 0h-80v502h80v-502zM235 578h-80l-128 167l62 39z" />
<glyph unicode="&#xed;" horiz-adv-x="272" d="M176 0h-80v502h80v-502zM265 745l-128 -167h-80l146 206z" />
<glyph unicode="&#xee;" horiz-adv-x="272" d="M176 0h-80v502h80v-502zM282 578h-80l-66 98l-66 -98h-80l146 206z" />
<glyph unicode="&#xef;" horiz-adv-x="272" d="M176 0h-80v502h80v-502zM291 654q0 -22 -16.5 -38.5t-38.5 -16.5t-38.5 16.5t-16.5 38.5t16.5 38.5t38.5 16.5t38.5 -16.5t16.5 -38.5zM91 654q0 -22 -16.5 -38.5t-38.5 -16.5t-38.5 16.5t-16.5 38.5t16.5 38.5t38.5 16.5t38.5 -16.5t16.5 -38.5z" />
<glyph unicode="&#xf0;" d="M535 235q0 -100 -72 -171.5t-173 -71.5q-98 0 -170 72t-72 170q0 95 71 164.5t164 69.5q53 0 95 -20q-27 42 -105 116l-144 -67l-29 61l117 55q-38 31 -66 47l65 48q26 -19 74 -61l132 61l29 -61l-108 -50q83 -79 137.5 -174t54.5 -188zM455 231q0 67 -47.5 115 t-115.5 48t-116 -48t-48 -115t48 -115t116 -48t115.5 48t47.5 115z" />
<glyph unicode="&#xf1;" horiz-adv-x="604" d="M521 0h-80v283q0 70 -38 110.5t-98 40.5t-99.5 -41t-39.5 -110v-283h-80v502h80v-65q17 29 57.5 51t89.5 22q90 0 149 -59.5t59 -162.5v-288zM458 696q-2 -50 -26.5 -77.5t-61.5 -27.5q-26 0 -65 20.5t-52 20.5q-31 0 -34 -41l-55 9q1 48 25.5 76.5t59.5 28.5 q25 0 67 -21t54 -21q32 0 34 42z" />
<glyph unicode="&#xf2;" horiz-adv-x="614" d="M566 251q0 -107 -76 -183t-183 -76t-183 76t-76 183t76 183t183 76t183 -76t76 -183zM486 251q0 77 -51.5 130t-127.5 53t-127.5 -53t-51.5 -130t51.5 -130t127.5 -53t127.5 53t51.5 130zM406 578h-80l-128 167l62 39z" />
<glyph unicode="&#xf3;" horiz-adv-x="614" d="M566 251q0 -107 -76 -183t-183 -76t-183 76t-76 183t76 183t183 76t183 -76t76 -183zM486 251q0 77 -51.5 130t-127.5 53t-127.5 -53t-51.5 -130t51.5 -130t127.5 -53t127.5 53t51.5 130zM436 745l-128 -167h-80l146 206z" />
<glyph unicode="&#xf4;" horiz-adv-x="614" d="M566 251q0 -107 -76 -183t-183 -76t-183 76t-76 183t76 183t183 76t183 -76t76 -183zM486 251q0 77 -51.5 130t-127.5 53t-127.5 -53t-51.5 -130t51.5 -130t127.5 -53t127.5 53t51.5 130zM453 578h-80l-66 98l-66 -98h-80l146 206z" />
<glyph unicode="&#xf5;" horiz-adv-x="614" d="M566 251q0 -107 -76 -183t-183 -76t-183 76t-76 183t76 183t183 76t183 -76t76 -183zM486 251q0 77 -51.5 130t-127.5 53t-127.5 -53t-51.5 -130t51.5 -130t127.5 -53t127.5 53t51.5 130zM455 696q-2 -50 -26.5 -77.5t-61.5 -27.5q-25 0 -64 20.5t-53 20.5q-31 0 -34 -41 l-55 9q1 48 25.5 76.5t59.5 28.5q24 0 66 -21t55 -21q14 0 23.5 11t10.5 31z" />
<glyph unicode="&#xf6;" horiz-adv-x="614" d="M566 251q0 -107 -76 -183t-183 -76t-183 76t-76 183t76 183t183 76t183 -76t76 -183zM486 251q0 77 -51.5 130t-127.5 53t-127.5 -53t-51.5 -130t51.5 -130t127.5 -53t127.5 53t51.5 130zM462 654q0 -22 -16 -38.5t-39 -16.5t-39 16.5t-16 38.5t16 38.5t39 16.5t39 -16.5 t16 -38.5zM262 654q0 -22 -16 -38.5t-39 -16.5t-39 16.5t-16 38.5t16 38.5t39 16.5t39 -16.5t16 -38.5z" />
<glyph unicode="&#xf7;" horiz-adv-x="600" d="M355 483q0 -23 -16.5 -39t-38.5 -16t-38.5 16t-16.5 39t16.5 39t38.5 16t38.5 -16t16.5 -39zM552 243h-504v68h504v-68zM355 71q0 -23 -16.5 -39t-38.5 -16t-38.5 16t-16.5 39t16.5 39t38.5 16t38.5 -16t16.5 -39z" />
<glyph unicode="&#xf8;" horiz-adv-x="614" d="M584 536l-89 -107q71 -74 71 -178q0 -107 -76 -183t-183 -76q-77 0 -140 41l-56 -67h-83l90 108q-70 73 -70 177q0 107 76 183t183 76q76 0 139 -41l55 67h83zM486 251q0 68 -41 118l-229 -276q41 -25 91 -25q76 0 127.5 53t51.5 130zM397 410q-43 24 -90 24 q-76 0 -127.5 -53t-51.5 -130q0 -66 40 -116z" />
<glyph unicode="&#xf9;" horiz-adv-x="604" d="M518 0h-80v65q-17 -29 -57.5 -51t-89.5 -22q-90 0 -149 59.5t-59 162.5v288h80v-283q0 -70 38 -110.5t98 -40.5t99.5 41t39.5 110v283h80v-502zM401 578h-80l-128 167l62 39z" />
<glyph unicode="&#xfa;" horiz-adv-x="604" d="M518 0h-80v65q-17 -29 -57.5 -51t-89.5 -22q-90 0 -149 59.5t-59 162.5v288h80v-283q0 -70 38 -110.5t98 -40.5t99.5 41t39.5 110v283h80v-502zM431 745l-128 -167h-80l146 206z" />
<glyph unicode="&#xfb;" horiz-adv-x="604" d="M518 0h-80v65q-17 -29 -57.5 -51t-89.5 -22q-90 0 -149 59.5t-59 162.5v288h80v-283q0 -70 38 -110.5t98 -40.5t99.5 41t39.5 110v283h80v-502zM448 578h-80l-66 98l-66 -98h-80l146 206z" />
<glyph unicode="&#xfc;" horiz-adv-x="604" d="M518 0h-80v65q-17 -29 -57.5 -51t-89.5 -22q-90 0 -149 59.5t-59 162.5v288h80v-283q0 -70 38 -110.5t98 -40.5t99.5 41t39.5 110v283h80v-502zM457 654q0 -22 -16.5 -38.5t-38.5 -16.5t-38.5 16.5t-16.5 38.5t16.5 38.5t38.5 16.5t38.5 -16.5t16.5 -38.5zM257 654 q0 -22 -16.5 -38.5t-38.5 -16.5t-38.5 16.5t-16.5 38.5t16.5 38.5t38.5 16.5t38.5 -16.5t16.5 -38.5z" />
<glyph unicode="&#xfd;" horiz-adv-x="530" d="M524 502l-346 -704h-88l131 267l-216 437h88l172 -354l171 354h88zM405 745l-128 -167h-80l146 206z" />
<glyph unicode="&#xfe;" horiz-adv-x="642" d="M594 251q0 -106 -74 -182.5t-178 -76.5q-57 0 -104 25.5t-72 64.5v-280h-80v898h80v-280q25 39 72 64.5t104 25.5q104 0 178 -76.5t74 -182.5zM514 251q0 77 -50 130t-124 53t-124 -53t-50 -130t50 -130t124 -53t124 53t50 130z" />
<glyph unicode="&#xff;" horiz-adv-x="530" d="M524 502l-346 -704h-88l131 267l-216 437h88l172 -354l171 354h88zM420 654q0 -22 -16 -38.5t-39 -16.5t-39 16.5t-16 38.5t16 38.5t39 16.5t39 -16.5t16 -38.5zM220 654q0 -22 -16 -38.5t-39 -16.5t-39 16.5t-16 38.5t16 38.5t39 16.5t39 -16.5t16 -38.5z" />
<glyph unicode="&#x152;" horiz-adv-x="920" d="M843 0h-233q-34 0 -103.5 -4t-109.5 -4q-146 0 -245.5 99t-99.5 242t99.5 242t245.5 99q40 0 109.5 -4t103.5 -4h233v-72h-297v-221h285v-72h-285v-229h297v-72zM466 74v518q-38 6 -61 6q-116 0 -194 -75.5t-78 -189.5t78 -189.5t194 -75.5q23 0 61 6z" />
<glyph unicode="&#x153;" horiz-adv-x="1014" d="M962 254l-2 -35h-397q0 -63 48 -107t115 -44q86 0 146 65l57 -52q-78 -89 -203 -89q-131 0 -205 112q-80 -112 -214 -112q-107 0 -183 76t-76 183t76 183t183 76q132 0 212 -110q38 49 85.5 79.5t120.5 30.5q101 0 169 -65.5t68 -190.5zM878 290q0 66 -43 105t-110 39 q-66 0 -114 -41.5t-48 -102.5h315zM486 251q0 77 -51.5 130t-127.5 53t-127.5 -53t-51.5 -130t51.5 -130t127.5 -53t127.5 53t51.5 130z" />
<glyph unicode="&#x178;" horiz-adv-x="556" d="M568 666l-250 -370v-296h-80v296l-250 370h96l194 -283l194 283h96zM433 798q0 -22 -16.5 -38.5t-38.5 -16.5t-38.5 16.5t-16.5 38.5t16.5 38.5t38.5 16.5t38.5 -16.5t16.5 -38.5zM233 798q0 -22 -16.5 -38.5t-38.5 -16.5t-38.5 16.5t-16.5 38.5t16.5 38.5t38.5 16.5 t38.5 -16.5t16.5 -38.5z" />
<glyph unicode="&#x2c6;" horiz-adv-x="272" d="M282 578h-80l-66 98l-66 -98h-80l146 206z" />
<glyph unicode="&#x2dc;" horiz-adv-x="272" d="M284 696q-2 -50 -26.5 -77.5t-61.5 -27.5q-26 0 -65 20.5t-52 20.5q-31 0 -34 -41l-55 9q1 48 25.5 76.5t59.5 28.5q25 0 67 -21t54 -21q32 0 34 42z" />
<glyph unicode="&#x2000;" horiz-adv-x="474" />
<glyph unicode="&#x2001;" horiz-adv-x="948" />
<glyph unicode="&#x2002;" horiz-adv-x="474" />
<glyph unicode="&#x2003;" horiz-adv-x="948" />
<glyph unicode="&#x2004;" horiz-adv-x="316" />
<glyph unicode="&#x2005;" horiz-adv-x="237" />
<glyph unicode="&#x2006;" horiz-adv-x="158" />
<glyph unicode="&#x2007;" horiz-adv-x="158" />
<glyph unicode="&#x2008;" horiz-adv-x="118" />
<glyph unicode="&#x2009;" horiz-adv-x="189" />
<glyph unicode="&#x200a;" horiz-adv-x="52" />
<glyph unicode="&#x2010;" horiz-adv-x="345" d="M297 220h-249v71h249v-71z" />
<glyph unicode="&#x2011;" horiz-adv-x="345" d="M297 220h-249v71h249v-71z" />
<glyph unicode="&#x2012;" horiz-adv-x="345" d="M297 220h-249v71h249v-71z" />
<glyph unicode="&#x2013;" horiz-adv-x="500" d="M500 222h-500v67h500v-67z" />
<glyph unicode="&#x2014;" horiz-adv-x="1000" d="M1000 222h-1000v67h1000v-67z" />
<glyph unicode="&#x2018;" horiz-adv-x="290" d="M242 424h-80l-113 242l68 34z" />
<glyph unicode="&#x2019;" horiz-adv-x="290" d="M242 666l-113 -242h-80l125 276z" />
<glyph unicode="&#x201a;" horiz-adv-x="290" d="M202 87l-113 -242h-80l125 276z" />
<glyph unicode="&#x201c;" horiz-adv-x="446" d="M389 424h-80l-100 242l68 34zM242 424h-80l-113 242l68 34z" />
<glyph unicode="&#x201d;" horiz-adv-x="446" d="M397 666l-113 -242h-80l125 276zM237 666l-100 -242h-80l112 276z" />
<glyph unicode="&#x201e;" horiz-adv-x="446" d="M355 87l-113 -242h-80l125 276zM195 87l-100 -242h-80l112 276z" />
<glyph unicode="&#x2022;" horiz-adv-x="500" d="M416 336q0 -69 -49 -117.5t-118 -48.5q-68 0 -117 49t-49 117t49 117t117 49q69 0 118 -48.5t49 -117.5z" />
<glyph unicode="&#x2026;" horiz-adv-x="1000" d="M888 45q0 -23 -16 -39t-39 -16t-39 16t-16 39t16 39t39 16t39 -16t16 -39zM555 45q0 -23 -16.5 -39t-38.5 -16t-38.5 16t-16.5 39t16.5 39t38.5 16t38.5 -16t16.5 -39zM222 45q0 -23 -16 -39t-39 -16t-39 16t-16 39t16 39t39 16t39 -16t16 -39z" />
<glyph unicode="&#x202f;" horiz-adv-x="189" />
<glyph unicode="&#x2039;" horiz-adv-x="366" d="M296 79l-43 -41l-212 218l212 218l43 -41l-148 -177z" />
<glyph unicode="&#x203a;" horiz-adv-x="366" d="M325 256l-212 -218l-43 41l148 177l-148 177l43 41z" />
<glyph unicode="&#x205f;" horiz-adv-x="237" />
<glyph unicode="&#x20ac;" d="M549 61q-75 -69 -172 -69q-96 0 -170.5 69.5t-99.5 177.5h-103l15 57h79q-2 24 -2 37q0 26 3 50h-87l15 57h83q28 104 101.5 169t165.5 65q103 0 172 -71l-48 -60q-62 55 -130 55q-55 0 -104 -43.5t-74 -114.5h264l-15 -57h-263q-3 -25 -3 -50q0 -13 2 -37h240l-15 -57 h-214q22 -76 73 -123.5t109 -47.5q66 0 130 54z" />
<glyph unicode="&#x2122;" horiz-adv-x="854" d="M797 331h-63l-72 220l-95 -242l-96 243l-71 -221h-63l128 391l102 -254l100 254zM335 645h-125v-314h-60v314h-126v55h311v-55z" />
<glyph unicode="&#x25fc;" horiz-adv-x="500" d="M0 500h500v-500h-500v500z" />
</font>
</defs>
</svg>
