<svg width="103" height="39" viewBox="0 0 103 39" xmlns="http://www.w3.org/2000/svg"><path fill="#f48c00" fill-rule="evenodd" d="M36.6 8.2c-2.2 0-4 1.7-4 3.6V27c2 0 4-1.7 4-3.6V8.2zm55 15.2a5 5 0 0 1-3.5-1.4c-1-1-1.5-2-1.5-3.4v-2.4c0-1.4.5-2.4 1.5-3.4s2.1-1.4 3.5-1.4 2.6.5 3.6 1.4c1 1 1.4 2 1.4 3.4v2.4c0 1.3-.4 2.4-1.4 3.4a5 5 0 0 1-3.6 1.4zm9.1-7.3c0-2.3-.9-4.4-2.7-6.1a9 9 0 0 0-6.4-2.6 9 9 0 0 0-6.4 2.6 8.3 8.3 0 0 0-2.7 6.1v2.5c0 2.4 1 4.5 2.7 6.2 1.8 1.5 4 2.3 6.4 2.3 2.5 0 4.6-.8 6.4-2.3a8.3 8.3 0 0 0 2.7-6.2v-2.5zm-23.8 2c-1.3.6-1.7 1.6-2 2.1-.2.7-.6 1.2-1.1 1.8a5 5 0 0 1-3.6 1.4 5 5 0 0 1-3.5-1.4c-1-1-1.5-2-1.5-3.4v-2.4c0-1.4.5-2.4 1.5-3.4s2.2-1.4 3.5-1.4a5 5 0 0 1 3.9 1.7c.3.4.8.6 1.4.6a2 2 0 0 0 2-2c0-.5-.2-1-.4-1.3a9 9 0 0 0-6.9-3 9 9 0 0 0-6.4 2.6 8.3 8.3 0 0 0-2.6 6.1v2.5c0 2.4.9 4.5 2.6 6.2 1.8 1.5 4 2.3 6.4 2.3 2 0 3.6-.5 5.1-1.4 0 1.2-.7 5-5 5-1.3 0-2.1-.4-2.4-.6-1.7-1-3.5-.2-4.7 1a9 9 0 0 0 7 3.6c2.5 0 4.6-.7 6.4-2.4 1.9-2 2.7-4.3 2.7-7v-7.6s-1.3 0-2.4.4zm-19-.4v7.5c0 2.8-.8 5.2-2.7 7.1a8.6 8.6 0 0 1-6.3 2.4c-4.7 0-7.1-3.6-7.1-3.6 1.2-1.2 3-2 4.7-1 .3.2 1.2.7 2.4.7 4.3 0 5-4 5-5a9.6 9.6 0 0 1-5 1.3c-2.5 0-4.6-.8-6.4-2.3a8.3 8.3 0 0 1-2.7-6.2V16c0-2.3.9-4.4 2.6-6.1A9 9 0 0 1 49 7.4a9 9 0 0 1 6.8 3c.3.4.4.8.4 1.3a2 2 0 0 1-2 2 2 2 0 0 1-1.4-.6 5 5 0 0 0-3.8-1.7c-1.4 0-2.6.5-3.6 1.4-1 1-1.4 2-1.5 3.4v2.4c0 1.3.5 2.4 1.5 3.4a5 5 0 0 0 3.6 1.4 5 5 0 0 0 4.7-3.2c.2-.5.6-1.5 2-2 1-.5 2.3-.5 2.3-.5zM29 27c0-1.4-1-3.7-3.5-4h-8.9l10.2-9.7c.4-.4 1.4-1.8.7-3.3-.5-1.2-1.5-1.7-3-1.7H11.5c0 1.6 1 3.6 3.2 4H22l-10.7 10c-.4.5-1.2 1.8-.6 3 .5 1.3 1.4 1.7 3 1.7h15.2zm5.4 2.4a2 2 0 0 1 0 2.9 7.6 7.6 0 0 1-5.3 2.2H10.4a7.6 7.6 0 0 1-7.6-7.6V8.3A7.6 7.6 0 0 1 10.4.7H29a7.6 7.6 0 0 1 5.6 2.5c.3.3.6.8.6 1.4a2 2 0 0 1-3.4 1.5A4 4 0 0 0 30.4 5L29 4.7H10.4A3.6 3.6 0 0 0 7 8.3v18.5a3.6 3.6 0 0 0 3.5 3.6H29a3.5 3.5 0 0 0 2.5-1 2 2 0 0 1 2.8 0z"></path></svg>
