<svg width="182" height="34" viewBox="0 0 165 34" xmlns="http://www.w3.org/2000/svg"><path fill="#e60000" fill-rule="evenodd" d="M12.23 10.42h4.06L9.98 25.94H6.5L0 10.42h4.25l4.05 10.3 3.93-10.3zM31.06 21.1a8.2 8.2 0 0 1-1.38 2.63 6.86 6.86 0 0 1-5.59 2.57 6.86 6.86 0 0 1-5.58-2.57 8.18 8.18 0 0 1-1.38-2.63 9.73 9.73 0 0 1 0-5.94c.3-.96.77-1.82 1.38-2.59a6.78 6.78 0 0 1 2.32-1.83 7.3 7.3 0 0 1 3.26-.7 7.2 7.2 0 0 1 3.26.7c.92.46 1.69 1.07 2.31 1.83a7.88 7.88 0 0 1 1.4 2.6 9.6 9.6 0 0 1 0 5.93zm12.78 4.85l-.16-1.2c-.36.41-.85.77-1.44 1.08a5.72 5.72 0 0 1-4.94-.2 6.36 6.36 0 0 1-2.06-1.8 8.2 8.2 0 0 1-1.27-2.61c-.29-.99-.43-2.02-.43-3.1 0-1 .15-1.99.45-2.96a7.8 7.8 0 0 1 1.36-2.59 6.8 6.8 0 0 1 5.54-2.52c.81 0 1.69.15 2.63.44V4.47h3.99v21.47h-3.67zm15.23-.02l-.16-1.16c-.43.48-.98.86-1.65 1.13a5.8 5.8 0 0 1-4.12.06 4.76 4.76 0 0 1-3.21-4.59 4.42 4.42 0 0 1 1.68-3.53c.51-.41 1.1-.74 1.77-1a14.8 14.8 0 0 1 3.8-.82l1.53-.15v-.22c0-.86-.22-1.47-.66-1.84a2.8 2.8 0 0 0-1.83-.54 5.08 5.08 0 0 0-2.4.56 8.53 8.53 0 0 0-1.45.92l-1.32-2.8a9.12 9.12 0 0 1 2.08-1.18 9.5 9.5 0 0 1 3.75-.72c.86 0 1.64.1 2.35.33a4.75 4.75 0 0 1 3.04 2.9c.3.74.44 1.63.44 2.68v9.97h-3.64zM75.04 8.01a5.14 5.14 0 0 0-2.25-.45c-.56 0-1.03.16-1.4.5-.38.33-.57.87-.57 1.62v.74h3.35v3.22h-3.32v12.3h-3.99v-12.3H64.8v-3.22h2.06V9.6c0-1.01.13-1.87.39-2.56a4.23 4.23 0 0 1 2.7-2.67c.62-.2 1.3-.31 2.03-.31a8.86 8.86 0 0 1 3.5.64l-.44 3.32zm14.8 10.1c0 1.02-.15 2-.46 2.98a8.18 8.18 0 0 1-1.39 2.63 6.86 6.86 0 0 1-5.58 2.57 6.86 6.86 0 0 1-5.58-2.57 8.18 8.18 0 0 1-1.4-2.63 9.73 9.73 0 0 1 0-5.94c.32-.96.78-1.82 1.4-2.59a6.78 6.78 0 0 1 2.31-1.83 7.3 7.3 0 0 1 3.27-.7 7.2 7.2 0 0 1 3.25.7 7 7 0 0 1 2.32 1.83 7.88 7.88 0 0 1 1.4 2.6c.3.96.46 1.95.46 2.96zm12.4 7.83v-8.85c0-1.18-.25-2.1-.75-2.74a2.45 2.45 0 0 0-2.06-.97c-.62 0-1.2.17-1.72.49-.53.32-.98.67-1.37 1.06v11h-3.99v-15.5H96l.2 1.22a7.02 7.02 0 0 1 6.73-1.24 4.4 4.4 0 0 1 1.76 1.17c.5.54.87 1.24 1.14 2.1.27.85.4 1.88.4 3.08v9.18h-3.99zm10.38-6.76c.09 1.3.5 2.25 1.23 2.83.73.58 1.68.87 2.84.87a7.57 7.57 0 0 0 3.72-.97c.26-.15.45-.29.58-.41l1.06 3.25a7.93 7.93 0 0 1-1.96.95 13.05 13.05 0 0 1-3.93.6c-1 0-1.97-.17-2.88-.5a6.42 6.42 0 0 1-2.4-1.49 7.34 7.34 0 0 1-1.64-2.52 9.6 9.6 0 0 1-.6-3.6c0-1.32.18-2.48.55-3.49.38-1 .9-1.85 1.55-2.54a6.72 6.72 0 0 1 2.29-1.58 7.56 7.56 0 0 1 5.52-.06c.83.32 1.56.82 2.17 1.5.61.67 1.1 1.55 1.45 2.62.35 1.07.53 2.35.53 3.83v.7h-10.08zM155.15 1.6a16.77 16.77 0 1 1-14.34 30.32A16.77 16.77 0 0 1 155.15 1.6c-.3-.1-.76-.13-1.2-.13-3.49.01-7.34 1.5-10.15 3.83-2.88 2.38-5.13 6.4-5.11 10.58.02 6.31 4.81 10.24 9.42 10.23a8.97 8.97 0 0 0 9.04-8.95c-.02-4.27-2.34-7.35-7.44-8.6a6.96 6.96 0 0 1 5.45-6.97zM27.6 18.1c0-.65-.07-1.26-.22-1.84a4.48 4.48 0 0 0-.68-1.5c-.3-.42-.66-.76-1.1-1a2.98 2.98 0 0 0-1.5-.38c-.59 0-1.09.13-1.52.38-.43.24-.8.58-1.1 1-.3.42-.52.92-.67 1.5a7.3 7.3 0 0 0 0 3.7c.15.57.37 1.07.66 1.5a3.07 3.07 0 0 0 2.62 1.39 2.98 2.98 0 0 0 2.61-1.4c.3-.42.53-.92.68-1.5a7.3 7.3 0 0 0 .22-1.85zm31.15.56a19.7 19.7 0 0 0-2.63.33c-.86.17-1.46.46-1.8.88-.33.42-.5.88-.5 1.37 0 .51.19.93.57 1.24.38.3.91.46 1.6.46.52 0 1.02-.1 1.5-.32.5-.21.91-.48 1.26-.8v-3.16zm27.17-.56c0-.65-.08-1.26-.23-1.84a4.48 4.48 0 0 0-.67-1.5c-.3-.42-.67-.76-1.1-1a2.98 2.98 0 0 0-1.51-.38c-.58 0-1.09.13-1.51.38-.43.24-.8.58-1.1 1-.3.42-.53.92-.67 1.5a7.3 7.3 0 0 0 0 3.7c.14.57.37 1.07.65 1.5a3.07 3.07 0 0 0 2.62 1.39 2.98 2.98 0 0 0 2.62-1.4c.3-.42.52-.92.67-1.5a7.3 7.3 0 0 0 .23-1.85zm-42.4-4.26a5.9 5.9 0 0 0-2.15-.46 3.48 3.48 0 0 0-2.98 1.44 4.8 4.8 0 0 0-.72 1.49 6.01 6.01 0 0 0-.24 1.7c0 .64.07 1.26.21 1.85.14.6.36 1.1.64 1.55.3.44.65.8 1.1 1.07.43.27.95.4 1.54.4.5 0 1-.13 1.5-.4.52-.27.88-.59 1.1-.96v-7.68zm75.12 2.47c-.04-.53-.16-1-.34-1.4-.18-.4-.4-.72-.68-.96a2.72 2.72 0 0 0-1.83-.73c-.69 0-1.34.26-1.97.78a3.3 3.3 0 0 0-1.1 2.31h5.92z"></path></svg>
