<svg xmlns="http://www.w3.org/2000/svg" width="225" height="232" viewBox="0 0 225 232">
  <g fill="none" fill-rule="evenodd">
    <path fill="#00ADEF" d="M184.4,173.7 C196.2,178.9 208.7,183.4 220.5,188.6 C221.7,189 220.1,189.8 220,189.9 C214.2,196.8 206,203.7 199.5,210.2 C189.7,204.5 180.6,198.1 170.8,192.5 C182.5,170.4 191.6,145.4 196.4,115.8 C200.5,90.4 201.6,57.2 190.2,38.6 C188.7,36.1 186.5,33.3 184.6,31.7 C175.4,24.2 158.8,23.9 143.6,25.3 C128.8,26.6 114.7,29.6 102.3,32.2 C75.3,38 51.1,45.3 27.2,53.5 C26.9,53.5 27.1,53.2 27.2,53.2 C51.8,39.5 77.3,26.4 105.7,15.8 C119.2,10.8 134.4,5.8 150.6,2.7 C167.5,-0.5 186.5,-1.5 200.9,5 C215,11.3 221.8,23.5 223.7,40.1 C225.8,58.7 221.4,76 217.3,90.9 C208.9,121.4 196.8,147.9 184.4,173.7"/>
    <path fill="#000000" fill-rule="nonzero" d="M74.9 47.6C71 51.4 67 55.2 63.4 59.4 52.4 72.1 44.2 87.1 36.7 103.8 32 114.2 27.8 125.8 24.1 138.7 20.5 151 18.4 166.8 23.1 179.5 31.8 202.7 56.9 211.1 87.7 209.8 102.5 209.2 115.9 206.6 127.2 201.9 138.4 197.1 148.7 191.6 155.9 183.2 142 174.1 126.5 165.1 113.1 156L126.2 156 139.3 156C139.3 156 145.7 158.6 148.8 159.8 158.2 163.6 167.9 167.3 177.3 171.1 164 198.5 142.7 219.5 110.1 228 74.2 237.4 31.7 227.5 13.7 207.5 3.7 196.3-1.9 181.6.9 159.8 3.1 142.2 9.3 126.2 16 112.9 29.9 84.9 50 63.8 74.9 47.6M169.3 126.5L169.3 136C173.2 132.4 181.1 132.9 181.9 139.6 182.4 143.6 181.6 148.9 181.9 153.4L178.6 153.4C177.9 146.8 181.1 136 173.7 136.7 167.5 137.3 169.7 146.9 169.3 153.4L166 153.4 166 126.5 169.3 126.5z"/>
    <path fill="#000000" fill-rule="nonzero" d="M162.9 139.9C162 140.1 161 140.2 160.1 140.4 158.7 138.9 158.3 137.2 156.3 136.8 147 135.2 147.7 151.9 156 150.6 158 150.3 159.5 149.1 159.8 146.2 161 146.3 162 146.6 163.1 146.7 162.5 155.1 150.5 155.7 147.2 149.5 145.2 145.8 145.6 138.5 148.7 135.7 152.8 132 162.6 133.4 162.9 139.9M143.1 144.5L128.5 144.5C127.7 151.3 137.8 152.5 139.8 147.3 140.7 147.6 141.9 147.6 142.9 147.8 141.7 155.3 128.5 155.8 125.7 148.6 124.4 145.3 124.5 140.2 126.7 137.1 129.4 133.4 136.7 132.5 140.3 135.8 142.5 137.9 142.9 140.8 143.1 144.5M128.8 141.4L139.6 141.4C139.7 135.4 128.6 135.3 128.8 141.4M127.2 126.5L127.2 129.6 118.2 129.6 118.2 153.4 114.6 153.4 114.6 129.6 105.6 129.6C105.8 128.7 105.3 127 105.9 126.5L127.2 126.5z"/>
    <path fill="#00ADEF" fill-rule="nonzero" d="M97.1,126.4 L97.1,142.9 C97.1,148.1 95.2,150.7 91.4,150.7 C87.9,150.7 86,147.9 86,142.9 L86,126.4 L80.4,126.4 L80.4,142.8 C80.4,153.9 87.2,155.6 91.3,155.6 C98.6,155.6 102.8,150.9 102.8,142.7 L102.8,126.4 L97.1,126.4 Z"/>
    <path fill="#000000" fill-rule="nonzero" d="M72.9,150.1 C74,151.1 75.6,151.6 77,152.4 C76.4,153.9 75.9,155.4 74.7,156.2 C72.6,155.3 71,153.9 69.1,152.9 C58,156.3 49.9,150.7 49.9,140.1 C49.9,130.1 56.6,125.4 64.5,126 C72.3,126.6 77.1,132.7 76,142.9 C75.6,146 74.6,147.6 72.9,150.1 M64.4,130.6 C52.3,128.7 52.7,152.5 64.9,148.8 C63.8,148.3 62.5,148.1 61.8,147.3 C62.1,146.2 62.6,145.2 63.3,144.5 C65.2,145.2 66.8,146.1 68.4,147.1 C72.2,141.3 70.3,131.6 64.4,130.6"/>
  </g>
</svg>
