<?xml version="1.0" standalone="no"?>
<!DOCTYPE svg PUBLIC "-//W3C//DTD SVG 1.1//EN" "http://www.w3.org/Graphics/SVG/1.1/DTD/svg11.dtd" >
<svg xmlns="http://www.w3.org/2000/svg">
<metadata></metadata>
<defs>
<font id="contax_pro_35_thin_sm_capRg" horiz-adv-x="566" >
<font-face units-per-em="1000" ascent="800" descent="-200" />
<missing-glyph horiz-adv-x="290" />
<glyph unicode="&#xfb01;" horiz-adv-x="688" d="M591 0h-32v546h32v-546zM394 518h-276v-228h267v-28h-267v-262h-32v546h308v-28z" />
<glyph unicode="&#xfb02;" horiz-adv-x="918" d="M862 0h-314v546h32v-518h282v-28zM394 518h-276v-228h267v-28h-267v-262h-32v546h308v-28z" />
<glyph unicode="&#xfb03;" horiz-adv-x="1137" d="M394 518h-276v-228h267v-28h-267v-262h-32v546h308v-28zM843 518h-276v-228h267v-28h-267v-262h-32v546h308v-28zM1040 0h-32v546h32v-546z" />
<glyph unicode="&#xfb04;" horiz-adv-x="1367" d="M394 518h-276v-228h267v-28h-267v-262h-32v546h308v-28zM843 518h-276v-228h267v-28h-267v-262h-32v546h308v-28zM1311 0h-314v546h32v-518h282v-28z" />
<glyph horiz-adv-x="1000" />
<glyph horiz-adv-x="1000" />
<glyph unicode="&#xd;" horiz-adv-x="1000" />
<glyph unicode=" "  horiz-adv-x="290" />
<glyph unicode="&#x09;" horiz-adv-x="290" />
<glyph unicode="&#xa0;" horiz-adv-x="290" />
<glyph unicode="!" horiz-adv-x="242" d="M137 203h-32v497h32v-497zM153 24q0 -13 -9.5 -22.5t-23.5 -9.5t-23 9t-9 23t9 23t23 9t23.5 -9.5t9.5 -22.5z" />
<glyph unicode="&#x22;" horiz-adv-x="389" d="M284 490h-32v225h32v-225zM137 490h-32v225h32v-225z" />
<glyph unicode="#" d="M529 355h-127l-23 -150h119v-28h-124l-27 -177h-31l27 177h-153l-27 -177h-31l27 177h-123v28h128l22 150h-119v28h124l25 163h31l-25 -163h152l26 163h31l-25 -163h123v-28zM370 355h-152l-23 -150h153z" />
<glyph unicode="$" d="M466 132q0 -61 -46.5 -97.5t-122.5 -41.5v-106h-28v105q-70 1 -116.5 33t-60.5 84l34 8q25 -90 143 -97v227q-82 17 -120.5 46.5t-38.5 75.5q0 57 44.5 91t114.5 38v91h28v-91q121 -6 156 -97l-35 -8q-30 70 -121 76v-197q91 -18 130 -51.5t39 -88.5zM269 278v192 q-58 -2 -92 -29t-34 -69q0 -36 29 -57t97 -37zM434 132q0 40 -32.5 66t-104.5 43v-221q62 4 99.5 35t37.5 77z" />
<glyph unicode="%" horiz-adv-x="774" d="M734 153q0 -67 -47 -114t-114 -47t-114 47t-47 114t47 114t114 47t114 -47t47 -114zM593 674l-377 -682h-35l377 682h35zM362 513q0 -67 -47 -114t-114 -47t-114 47t-47 114t47 114t114 47t114 -47t47 -114zM702 153q0 56 -37.5 94.5t-91.5 38.5t-91.5 -38.5t-37.5 -94.5 t37.5 -94.5t91.5 -38.5t91.5 38.5t37.5 94.5zM330 513q0 56 -37.5 94.5t-91.5 38.5t-91.5 -38.5t-37.5 -94.5t37.5 -94.5t91.5 -38.5t91.5 38.5t37.5 94.5z" />
<glyph unicode="&#x26;" horiz-adv-x="762" d="M686 403h-138q83 -141 -10 -289l110 -114h-42l-88 91q-87 -99 -201 -99q-59 0 -106 18.5t-73 47t-39.5 59.5t-13.5 61q0 64 39.5 120t109.5 88q-32 31 -48 49.5t-29.5 47t-13.5 59.5q0 53 43.5 92.5t102.5 39.5q62 0 125 -43l-18 -24q-48 40 -105 40q-50 0 -83 -32 t-33 -73q0 -26 14 -52.5t29 -43t55 -58.5l245 -253q82 137 -1 268h-77v27h246v-27zM499 111l-247 255q-134 -71 -134 -178q0 -69 57 -119t146 -50q102 0 178 92z" />
<glyph unicode="'" horiz-adv-x="242" d="M137 490h-32v225h32v-225z" />
<glyph unicode="(" horiz-adv-x="340" d="M278 -197l-23 -15q-152 214 -152 457t153 456l22 -14q-143 -215 -143 -442q0 -229 143 -442z" />
<glyph unicode=")" horiz-adv-x="340" d="M237 245q0 -243 -154 -457l-21 14q142 213 142 443t-142 440l22 16q153 -215 153 -456z" />
<glyph unicode="*" horiz-adv-x="545" d="M433 567l-140 -42l89 -116l-25 -18l-84 122l-85 -122l-25 18l89 116l-140 42l10 29l139 -49l-4 148h31l-4 -148l139 49z" />
<glyph unicode="+" horiz-adv-x="600" d="M534 261h-218v-219h-31v219h-218v31h218v219h31v-219h218v-31z" />
<glyph unicode="," horiz-adv-x="246" d="M147 48l-91 -203h-33l91 203h33z" />
<glyph unicode="-" horiz-adv-x="345" d="M280 263h-215v26h215v-26z" />
<glyph unicode="." horiz-adv-x="246" d="M155 24q0 -13 -9.5 -22.5t-23.5 -9.5t-23 9t-9 23t9 23t23 9t23.5 -9.5t9.5 -22.5z" />
<glyph unicode="/" horiz-adv-x="358" d="M322 751l-253 -832l-31 8l252 832z" />
<glyph unicode="0" horiz-adv-x="602" d="M554 245q0 -104 -74.5 -178.5t-178.5 -74.5q-105 0 -179 74.5t-74 178.5q0 105 74 179t179 74q104 0 178.5 -74t74.5 -179zM521 245q0 95 -63.5 160t-156.5 65t-157 -65t-64 -160q0 -94 64 -159.5t157 -65.5t156.5 65.5t63.5 159.5z" />
<glyph unicode="1" d="M331 0h-32v465l-158 -65l-12 26l179 72h23v-498z" />
<glyph unicode="2" d="M446 0h-366l232 190q62 52 81.5 84t19.5 78q0 16 -6.5 34t-22 38t-47.5 33t-76 13q-83 0 -149 -80l-23 16q68 92 174 92q51 0 89.5 -16t57.5 -40.5t27.5 -47.5t8.5 -43q0 -53 -23 -90t-75 -80l-187 -154h285v-27z" />
<glyph unicode="3" d="M468 12q0 -82 -64.5 -139t-152.5 -57q-121 0 -185 75l26 16q55 -63 159 -63q76 0 130 49t54 117q0 73 -56 118t-137 45h-65v24h32q105 0 152.5 33.5t47.5 101.5q0 62 -44.5 100t-106.5 38q-90 0 -140 -53l-24 18q61 63 164 63q80 0 132 -47t52 -119q0 -49 -29 -90.5 t-92 -55.5q72 -15 109.5 -65t37.5 -109z" />
<glyph unicode="4" d="M517 0h-113v-176h-32v176h-349l381 512v-485h113v-27zM372 27v394l-293 -394h293z" />
<glyph unicode="5" d="M485 41q0 -100 -73.5 -162.5t-181.5 -62.5q-91 0 -157 53l22 22q60 -47 142 -47q92 0 153.5 54t61.5 143q0 93 -56 144.5t-152 51.5q-70 0 -131 -30v283h319v-28h-291v-216q61 19 111 19q102 0 167.5 -62t65.5 -162z" />
<glyph unicode="6" d="M522 227q0 -99 -69 -167t-165 -68q-99 0 -168.5 67.5t-69.5 168.5q0 64 33 134.5t87.5 133t102.5 107t100 85.5l22 -17q-72 -52 -157.5 -141t-115.5 -149q27 32 70.5 52.5t91.5 20.5q98 0 168 -67t70 -160zM490 224q0 84 -60 143.5t-145 59.5q-84 0 -143.5 -59.5 t-59.5 -143.5q0 -85 59.5 -144.5t143.5 -59.5q85 0 145 59.5t60 144.5z" />
<glyph unicode="7" d="M505 490l-332 -666h-32l315 638h-375v28h424z" />
<glyph unicode="8" d="M508 178q0 -76 -64.5 -131t-158.5 -55q-99 0 -162.5 54.5t-63.5 131.5q0 61 40 115t114 65q-64 12 -95.5 57.5t-31.5 93.5q0 66 52 115.5t144 49.5q94 0 146.5 -49.5t52.5 -115.5q0 -48 -31.5 -93.5t-95.5 -57.5q74 -11 114 -65t40 -115zM449 509q0 58 -44.5 97.5 t-119.5 39.5q-76 0 -121.5 -39.5t-45.5 -97.5q0 -57 45.5 -97.5t121.5 -40.5q74 0 119 40.5t45 97.5zM476 179q0 69 -52 116.5t-139 47.5t-140.5 -47.5t-53.5 -116.5q0 -66 54.5 -112.5t139.5 -46.5q83 0 137 46.5t54 112.5z" />
<glyph unicode="9" d="M518 262q0 -64 -33 -134.5t-87.5 -133t-102.5 -107t-100 -85.5l-22 17q72 52 157.5 141t115.5 149q-27 -32 -70.5 -52.5t-91.5 -20.5q-98 0 -168 67t-70 160q0 99 69 167t165 68q99 0 168.5 -67.5t69.5 -168.5zM486 266q0 85 -59.5 144.5t-143.5 59.5q-85 0 -145 -59.5 t-60 -144.5q0 -84 60 -143.5t145 -59.5q84 0 143.5 59.5t59.5 143.5z" />
<glyph unicode=":" horiz-adv-x="246" d="M155 338q0 -13 -9.5 -22.5t-23.5 -9.5t-23 9t-9 23t9 23t23 9t23.5 -9.5t9.5 -22.5zM155 24q0 -13 -9.5 -22.5t-23.5 -9.5t-23 9t-9 23t9 23t23 9t23.5 -9.5t9.5 -22.5z" />
<glyph unicode=";" horiz-adv-x="246" d="M155 338q0 -13 -9.5 -22.5t-23.5 -9.5t-23 9t-9 23t9 23t23 9t23.5 -9.5t9.5 -22.5zM147 48l-91 -203h-33l91 203h33z" />
<glyph unicode="&#x3c;" horiz-adv-x="600" d="M538 41l-476 217v38l476 217v-32l-444 -204l444 -204v-32z" />
<glyph unicode="=" horiz-adv-x="600" d="M534 344h-467v31h467v-31zM534 170h-467v31h467v-31z" />
<glyph unicode="&#x3e;" horiz-adv-x="600" d="M537 258l-476 -217v32l444 204l-444 204v32l476 -217v-38z" />
<glyph unicode="?" horiz-adv-x="464" d="M403 549q0 -47 -19 -83.5t-69 -77.5q-59 -49 -81 -86.5t-24 -101.5h-32q3 67 24.5 110t76.5 87q49 40 70.5 71t21.5 79q0 53 -43 89t-103 36q-95 0 -135 -61l-27 16q50 73 162 73q73 0 125.5 -40.5t52.5 -110.5zM227 24q0 -13 -9.5 -22.5t-23.5 -9.5t-23 9t-9 23t9 23 t23 9t23.5 -9.5t9.5 -22.5z" />
<glyph unicode="@" horiz-adv-x="967" d="M863 409q0 -107 -59.5 -180.5t-139.5 -73.5q-42 0 -62.5 28.5t-14.5 53.5q-23 -37 -62 -59.5t-79 -22.5q-54 0 -89 38.5t-35 102.5q0 97 59.5 162t135.5 65q43 0 76 -24.5t42 -62.5l20 71h27l-58 -192q-15 -50 -15 -72q0 -30 17 -47.5t44 -17.5q64 0 114 67t50 167 q0 120 -85.5 192.5t-226.5 72.5q-160 0 -273 -103t-113 -260q0 -150 98.5 -235.5t266.5 -85.5q148 0 275 88l14 -22q-51 -38 -132 -66t-169 -28q-172 0 -278.5 95.5t-106.5 256.5q0 160 121 274t288 114q156 0 253 -82.5t97 -213.5zM612 411q0 37 -25.5 63.5t-71.5 26.5 q-65 0 -113 -62t-48 -143q0 -55 26 -86.5t66 -31.5q41 0 76 24.5t54 62.5q36 72 36 146z" />
<glyph unicode="A" horiz-adv-x="606" d="M606 0h-35l-115 264h-306l-115 -264h-35l303 688zM443 292l-140 323l-140 -323h280z" />
<glyph unicode="B" horiz-adv-x="598" d="M526 178q0 -23 -5.5 -46t-20.5 -47.5t-37 -43t-58 -30t-81 -11.5h-224v666h224q52 0 89.5 -17t56.5 -43.5t27.5 -52.5t8.5 -52q0 -52 -31.5 -99.5t-90.5 -55.5q70 -9 106 -58t36 -110zM473 500q0 138 -171 138h-169v-279h161q92 0 135.5 35t43.5 106zM494 178 q0 28 -8 52.5t-27 48.5t-56.5 38t-90.5 14h-179v-303h187q52 0 89 14.5t54 38.5t24 47.5t7 49.5z" />
<glyph unicode="C" horiz-adv-x="652" d="M580 45q-77 -53 -186 -53q-142 0 -242 99.5t-100 241.5t100.5 241.5t241.5 99.5q106 0 186 -54l-19 -24q-80 50 -166 50q-129 0 -219 -90.5t-90 -222.5t90 -222.5t219 -90.5q83 0 166 49z" />
<glyph unicode="D" horiz-adv-x="693" d="M641 333q0 -142 -97 -237.5t-240 -95.5h-204v666h204q143 0 240 -95.5t97 -237.5zM607 333q0 127 -88 216t-218 89h-168v-610h168q130 0 218 89t88 216z" />
<glyph unicode="E" horiz-adv-x="548" d="M470 0h-370v666h370v-28h-337v-287h325v-28h-325v-295h337v-28z" />
<glyph unicode="F" horiz-adv-x="532" d="M470 638h-337v-287h325v-28h-325v-323h-33v666h370v-28z" />
<glyph unicode="G" horiz-adv-x="770" d="M717 331q0 -142 -90 -240.5t-233 -98.5q-142 0 -242 99.5t-100 241.5q0 141 100 241t242 100q145 0 244 -102l-24 -21q-94 95 -220 95q-129 0 -218.5 -91t-89.5 -222t89 -222t219 -91q127 0 208.5 85.5t81.5 216.5h-261v28h294v-19z" />
<glyph unicode="H" horiz-adv-x="687" d="M587 0h-33v330h-421v-330h-33v666h33v-308h421v308h33v-666z" />
<glyph unicode="I" horiz-adv-x="253" d="M143 0h-33v666h33v-666z" />
<glyph unicode="J" horiz-adv-x="485" d="M389 222q0 -103 -59.5 -166.5t-156.5 -63.5q-90 0 -151 64l22 20q53 -56 129 -56q82 0 132.5 55t50.5 147v444h33v-444z" />
<glyph unicode="K" horiz-adv-x="546" d="M524 0h-46l-345 334l316 332h41l-313 -329zM133 0h-33v666h33v-666z" />
<glyph unicode="L" horiz-adv-x="514" d="M470 0h-370v666h33v-638h337v-28z" />
<glyph unicode="M" horiz-adv-x="870" d="M846 0h-33l-179 584l-199 -606l-199 606l-179 -584h-33l211 688l200 -607l200 607z" />
<glyph unicode="N" horiz-adv-x="734" d="M634 -22l-501 615v-593h-33v688l502 -615v593h32v-688z" />
<glyph unicode="O" horiz-adv-x="786" d="M734 333q0 -142 -99.5 -241.5t-241.5 -99.5t-241.5 99.5t-99.5 241.5t99.5 241.5t241.5 99.5t241.5 -99.5t99.5 -241.5zM700 333q0 132 -89 222.5t-218 90.5t-218 -90.5t-89 -222.5t89 -222.5t218 -90.5t218 90.5t89 222.5z" />
<glyph unicode="P" horiz-adv-x="546" d="M497 483q0 -78 -55.5 -129.5t-140.5 -51.5h-168v-302h-33v666h201q85 0 140.5 -52.5t55.5 -130.5zM465 483q0 65 -44.5 110t-120.5 45h-167v-309h167q75 0 120 44.5t45 109.5z" />
<glyph unicode="Q" horiz-adv-x="786" d="M734 333q0 -124 -77.5 -217t-191.5 -116l262 -147l-14 -24l-294 164q-2 0 -11.5 -0.5t-14.5 -0.5q-142 0 -241.5 99.5t-99.5 241.5t99.5 241.5t241.5 99.5t241.5 -99.5t99.5 -241.5zM700 333q0 132 -89 222.5t-218 90.5t-218 -90.5t-89 -222.5t89 -222.5t218 -90.5 t218 90.5t89 222.5z" />
<glyph unicode="R" horiz-adv-x="593" d="M554 0h-44l-333 322h127q81 0 129 43.5t48 115.5t-47 114.5t-128 42.5h-173v-638h-33v666h208q94 0 149.5 -52t55.5 -133q0 -75 -55.5 -131t-151.5 -56h-53z" />
<glyph unicode="S" horiz-adv-x="559" d="M487 181q0 -83 -63.5 -136t-157.5 -53q-83 0 -142.5 44t-72.5 111l31 6q14 -61 65 -97t122 -36q83 0 133.5 45.5t50.5 114.5q0 62 -42.5 98.5t-150.5 61.5q-101 24 -143.5 62t-42.5 100q0 75 59 124t144 49q75 0 126 -35t69 -92l-33 -7q-17 49 -61.5 77t-103.5 28 q-74 0 -120.5 -39.5t-46.5 -100.5q0 -54 39 -85t142 -55q108 -27 153.5 -70t45.5 -115z" />
<glyph unicode="T" horiz-adv-x="509" d="M478 638h-206v-638h-33v638h-206v28h445v-28z" />
<glyph unicode="U" horiz-adv-x="704" d="M608 264q0 -123 -74 -197.5t-182 -74.5t-182 74.5t-74 197.5v402h32v-396q0 -113 62.5 -181.5t161.5 -68.5t161.5 68.5t62.5 181.5v396h32v-402z" />
<glyph unicode="V" horiz-adv-x="606" d="M606 666l-303 -688l-303 688h35l268 -615l268 615h35z" />
<glyph unicode="W" horiz-adv-x="870" d="M846 666l-211 -688l-200 607l-200 -607l-211 688h33l179 -584l199 606l199 -606l179 584h33z" />
<glyph unicode="X" horiz-adv-x="534" d="M528 0h-40l-221 320l-221 -320h-40l241 348l-221 318h40l202 -289l200 289h40l-221 -318z" />
<glyph unicode="Y" horiz-adv-x="501" d="M513 666l-246 -364v-302h-33v302l-246 364h39l224 -329l223 329h39z" />
<glyph unicode="Z" horiz-adv-x="549" d="M516 0h-481l402 638h-390v28h447l-402 -638h424v-28z" />
<glyph unicode="[" horiz-adv-x="340" d="M266 -185h-127v872h127v-26h-95v-820h95v-26z" />
<glyph unicode="\" horiz-adv-x="358" d="M320 -73l-31 -8l-253 832l32 8z" />
<glyph unicode="]" horiz-adv-x="340" d="M201 -185h-127v26h95v820h-95v26h127v-872z" />
<glyph unicode="^" horiz-adv-x="544" d="M454 428h-36l-146 239l-146 -239h-36l182 297z" />
<glyph unicode="_" horiz-adv-x="500" d="M500 -126h-500v28h500v-28z" />
<glyph unicode="`" horiz-adv-x="224" d="M172 634h-31l-111 145l29 17z" />
<glyph unicode="a" horiz-adv-x="513" d="M510 0h-36l-94 210h-246l-94 -210h-36l253 564zM368 238l-111 251l-111 -251h222z" />
<glyph unicode="b" horiz-adv-x="502" d="M440 149q0 -25 -8.5 -49t-26.5 -47.5t-52.5 -38t-80.5 -14.5h-186v546h186q43 0 74.5 -14t47.5 -36.5t23 -44.5t7 -44q0 -41 -23.5 -76t-69.5 -46q54 -11 81.5 -49t27.5 -87zM391 407q0 52 -33 81.5t-99 29.5h-141v-222h136q65 0 101 28.5t36 82.5zM407 149 q0 48 -31.5 83.5t-106.5 35.5h-151v-240h151q39 0 68 11.5t43 31t20.5 38.5t6.5 40z" />
<glyph unicode="c" horiz-adv-x="542" d="M485 40q-71 -48 -159 -48q-116 0 -197.5 82.5t-81.5 198.5q0 117 81.5 199t197.5 82q89 0 159 -50l-20 -22q-65 43 -138 43q-103 0 -175 -73t-72 -179q0 -105 72 -178.5t175 -73.5q71 0 138 43z" />
<glyph unicode="d" horiz-adv-x="578" d="M532 273q0 -117 -80 -195t-197 -78h-169v546h169q117 0 197 -78t80 -195zM499 273q0 104 -71.5 174.5t-175.5 70.5h-134v-490h134q104 0 175.5 71t71.5 174z" />
<glyph unicode="e" horiz-adv-x="462" d="M394 0h-308v546h308v-28h-276v-228h267v-28h-267v-234h276v-28z" />
<glyph unicode="f" horiz-adv-x="449" d="M394 518h-276v-228h267v-28h-267v-262h-32v546h308v-28z" />
<glyph unicode="g" horiz-adv-x="638" d="M592 270q0 -116 -74.5 -197t-191.5 -81q-116 0 -197.5 82.5t-81.5 198.5t81.5 198.5t197.5 82.5q124 0 205 -89l-24 -19q-76 79 -181 79q-104 0 -175 -74t-71 -178t71 -178t175 -74q101 0 166.5 69.5t65.5 170.5h-215v28h249v-19z" />
<glyph unicode="h" horiz-adv-x="574" d="M488 0h-32v268h-338v-268h-32v546h32v-250h338v250h32v-546z" />
<glyph unicode="i" horiz-adv-x="226" d="M129 0h-32v546h32v-546z" />
<glyph unicode="j" horiz-adv-x="408" d="M326 183q0 -85 -50 -138t-130 -53q-76 0 -130 59l23 20q45 -50 107 -50q67 0 107.5 44.5t40.5 117.5v363h32v-363z" />
<glyph unicode="k" horiz-adv-x="483" d="M460 0h-47l-295 274l273 272h43l-271 -271zM118 0h-32v546h32v-546z" />
<glyph unicode="l" horiz-adv-x="428" d="M400 0h-314v546h32v-518h282v-28z" />
<glyph unicode="m" horiz-adv-x="729" d="M706 0h-34l-146 468l-161 -486l-162 485l-146 -467h-34l179 564l163 -489l163 489z" />
<glyph unicode="n" horiz-adv-x="612" d="M526 -18l-408 495v-477h-32v564l408 -495v477h32v-564z" />
<glyph unicode="o" horiz-adv-x="652" d="M606 273q0 -116 -82 -198.5t-198 -82.5t-197.5 82.5t-81.5 198.5t81.5 198.5t197.5 82.5t198 -82.5t82 -198.5zM572 273q0 105 -71.5 178.5t-174.5 73.5t-174.5 -73.5t-71.5 -178.5t71.5 -178.5t174.5 -73.5t174.5 73.5t71.5 178.5z" />
<glyph unicode="p" horiz-adv-x="466" d="M422 394q0 -65 -46.5 -108t-117.5 -43h-140v-243h-32v546h172q71 0 117.5 -43.5t46.5 -108.5zM389 394q0 51 -35.5 87.5t-95.5 36.5h-140v-247h140q60 0 95.5 36.5t35.5 86.5z" />
<glyph unicode="q" horiz-adv-x="652" d="M606 273q0 -99 -61 -174.5t-150 -96.5l205 -112l-17 -26l-233 130q-14 -2 -24 -2q-116 0 -197.5 82.5t-81.5 198.5t81.5 198.5t197.5 82.5t198 -82.5t82 -198.5zM572 273q0 105 -71.5 178.5t-174.5 73.5t-174.5 -73.5t-71.5 -178.5t71.5 -178.5t174.5 -73.5t174.5 73.5 t71.5 178.5z" />
<glyph unicode="r" horiz-adv-x="499" d="M470 0h-43l-261 267h89q63 0 102 34t39 90q0 58 -39 92.5t-101 34.5h-138v-518h-32v546h173q79 0 125 -43.5t46 -111.5q0 -66 -46.5 -109t-125.5 -43h-24z" />
<glyph unicode="s" horiz-adv-x="468" d="M407 150q0 -68 -53 -113t-130 -45q-71 0 -120.5 38.5t-58.5 94.5l32 7q10 -50 51 -80.5t98 -30.5q65 0 106 37.5t41 91.5q0 48 -35 77.5t-120 48.5q-84 19 -119.5 50.5t-35.5 83.5q0 63 49.5 103.5t119.5 40.5q63 0 106.5 -31t56.5 -80l-32 -6q-12 39 -49 63.5t-84 24.5 q-57 0 -95.5 -32.5t-38.5 -80.5q0 -42 32.5 -66t113.5 -43q89 -21 127 -57t38 -96z" />
<glyph unicode="t" horiz-adv-x="425" d="M398 518h-169v-518h-32v518h-169v28h370v-28z" />
<glyph unicode="u" horiz-adv-x="588" d="M506 217q0 -103 -61 -164t-151 -61t-150.5 61t-60.5 164v329h32v-327q0 -91 50 -144.5t129 -53.5t129.5 53.5t50.5 144.5v327h32v-329z" />
<glyph unicode="v" horiz-adv-x="513" d="M510 546l-253 -564l-253 564h36l217 -487l217 487h36z" />
<glyph unicode="w" horiz-adv-x="730" d="M707 546l-178 -564l-164 489l-164 -489l-178 564h34l146 -465l162 483l162 -484l146 466h34z" />
<glyph unicode="x" horiz-adv-x="460" d="M452 0h-40l-182 256l-182 -256h-40l202 285l-186 261h40l166 -233l166 233h40l-186 -261z" />
<glyph unicode="y" horiz-adv-x="433" d="M438 546l-206 -300v-246h-32v246l-206 300h40l182 -265l182 265h40z" />
<glyph unicode="z" horiz-adv-x="461" d="M431 0h-403l335 518h-320v28h375l-335 -518h348v-28z" />
<glyph unicode="{" horiz-adv-x="340" d="M274 -186q-69 0 -99 29t-30 95v181q0 57 -16.5 84.5t-61.5 37.5v19q45 10 61.5 37.5t16.5 84.5v181q0 66 30 95t99 29v-25q-63 -2 -80 -26.5t-17 -104.5v-154q0 -50 -12 -78.5t-51 -47.5q39 -19 51 -48t12 -79v-154q0 -80 17 -104.5t80 -26.5v-25z" />
<glyph unicode="|" horiz-adv-x="222" d="M128 -200h-32v1000h32v-1000z" />
<glyph unicode="}" horiz-adv-x="340" d="M273 241q-45 -10 -61.5 -37.5t-16.5 -84.5v-181q0 -66 -30 -95t-99 -29v25q63 2 80 26.5t17 104.5v154q0 50 12 79t51 48q-39 19 -51 47.5t-12 78.5v154q0 80 -17 104.5t-80 26.5v25q69 0 99 -29t30 -95v-181q0 -57 16.5 -84.5t61.5 -37.5v-19z" />
<glyph unicode="~" horiz-adv-x="600" d="M522 315q-42 -90 -114 -90q-40 0 -107 36t-110 36q-57 0 -91 -67l-22 12q43 85 118 85q46 0 118.5 -36t94.5 -36q55 0 92 71z" />
<glyph unicode="&#xa1;" horiz-adv-x="242" d="M154 522q0 -14 -9 -23t-23 -9t-23.5 9.5t-9.5 22.5t9.5 22.5t23.5 9.5t23 -9t9 -23zM137 -154h-32v497h32v-497z" />
<glyph unicode="&#xa2;" d="M485 47q-67 -55 -157 -55v-105h-28v106q-95 11 -160 83t-65 169q0 99 64.5 170t160.5 81v93h28v-91q87 0 157 -55l-23 -21q-58 48 -134 48v-450q76 0 134 49zM300 21v447q-83 -10 -138 -73t-55 -150q0 -86 55.5 -149.5t137.5 -74.5z" />
<glyph unicode="&#xa3;" d="M502 625l-19 -21q-59 42 -130 42q-84 0 -133 -51t-49 -115q0 -28 10 -62t20 -54l10 -19h206v-28h-197q37 -79 37 -136q0 -79 -60 -153h302v-28h-413v28h78q63 76 63 153q0 24 -9.5 58t-19.5 56l-10 22h-119v28h111q-39 71 -39 135q0 89 64 141.5t148 52.5q87 0 149 -49z " />
<glyph unicode="&#xa4;" d="M432 332q0 -54 -34 -94l100 -99l-21 -21l-100 99q-42 -34 -94 -34q-54 0 -94 34l-100 -99l-21 21l100 99q-34 40 -34 94q0 52 34 94l-100 99l21 21l100 -99q40 34 94 34q52 0 94 -34l100 99l21 -21l-100 -99q34 -42 34 -94zM402 332q0 50 -35 85.5t-84 35.5t-84 -35.5 t-35 -85.5t35 -85.5t84 -35.5t84 35.5t35 85.5z" />
<glyph unicode="&#xa5;" d="M520 666l-203 -336h169v-28h-186v-114h177v-28h-177v-160h-32v160h-177v28h177v114h-186v28h169l-203 336h38l198 -330l198 330h38z" />
<glyph unicode="&#xa6;" horiz-adv-x="222" d="M128 424h-32v250h32v-250zM128 -76h-32v250h32v-250z" />
<glyph unicode="&#xa7;" horiz-adv-x="582" d="M503 201q0 -48 -36 -83.5t-93 -49.5q48 -40 66.5 -70t18.5 -64q0 -63 -45 -101.5t-115 -38.5q-66 0 -109.5 33.5t-57.5 97.5l29 7q12 -53 49 -82t87 -29q55 0 92.5 29.5t37.5 82.5q0 13 -3 25.5t-10.5 24.5t-14 21t-21 21t-23 18.5t-28 18.5t-28 17.5t-31.5 18.5t-31 18 q-37 21 -58.5 36t-48.5 39t-39.5 54t-12.5 66q0 44 32.5 80.5t96.5 52.5q-69 57 -69 120q0 66 47 105t111 39q129 0 154 -122l-30 -8q-9 50 -42.5 76.5t-83.5 26.5q-52 0 -88 -30.5t-36 -84.5q0 -33 26 -64t58.5 -52.5t83.5 -50.5q10 -5 15 -8q34 -19 55.5 -34.5t46 -39 t36.5 -52.5t12 -64zM471 209q0 43 -32.5 80t-78.5 63q-5 3 -50 29.5t-78 43.5q-122 -24 -122 -122q0 -42 32 -79.5t79 -63.5q125 -72 128 -73q58 11 90 42.5t32 79.5z" />
<glyph unicode="&#xa8;" horiz-adv-x="224" d="M216 698q0 -14 -9 -23t-23 -9t-23 9t-9 23t9 23t23 9t23 -9t9 -23zM72 698q0 -14 -9 -23t-23 -9t-23 9t-9 23t9 23t23 9t23 -9t9 -23z" />
<glyph unicode="&#xa9;" horiz-adv-x="786" d="M734 333q0 -142 -99.5 -241.5t-241.5 -99.5t-241.5 99.5t-99.5 241.5t99.5 241.5t241.5 99.5t241.5 -99.5t99.5 -241.5zM700 333q0 132 -89 222.5t-218 90.5t-218 -90.5t-89 -222.5t89 -222.5t218 -90.5t218 90.5t89 222.5zM519 183q-49 -46 -116 -46q-75 0 -128 57.5 t-53 138.5t53 137t128 56q65 0 116 -45l-20 -21q-39 38 -96 38q-62 0 -104.5 -47.5t-42.5 -117.5q0 -73 42 -120.5t104 -47.5q56 0 96 37z" />
<glyph unicode="&#xaa;" horiz-adv-x="414" d="M338 363h-31q-10 16 -14 53q-46 -58 -124 -58q-42 0 -69.5 21.5t-27.5 56.5q0 47 46 81.5t172 50.5q-3 78 -86 78q-47 0 -92 -30l-17 21q49 37 113 37q45 0 79.5 -24.5t34.5 -77.5v-144q0 -34 16 -65zM348 280h-282v28h282v-28zM290 489v52q-187 -25 -187 -105 q0 -25 21.5 -38t52.5 -13q42 0 77.5 29.5t35.5 74.5z" />
<glyph unicode="&#xab;" horiz-adv-x="537" d="M467 107l-22 -20l-188 194l188 194l22 -20l-166 -174zM251 107l-22 -20l-188 194l188 194l22 -20l-166 -174z" />
<glyph unicode="&#xac;" horiz-adv-x="600" d="M534 170h-32v174h-435v31h467v-205z" />
<glyph unicode="&#xad;" horiz-adv-x="345" d="M280 263h-215v26h215v-26z" />
<glyph unicode="&#xae;" horiz-adv-x="596" d="M519 515q0 -90 -64.5 -153.5t-155.5 -63.5q-92 0 -156.5 63t-64.5 154t64.5 154.5t156.5 63.5q91 0 155.5 -63.5t64.5 -154.5zM486 515q0 78 -54.5 132.5t-132.5 54.5q-79 0 -133.5 -54.5t-54.5 -132.5t54.5 -132.5t133.5 -54.5q78 0 132.5 54.5t54.5 132.5zM397 394h-38 l-86 125h35q23 0 36 12t13 32q0 21 -13 32.5t-36 11.5h-58v-213h-31v242h98q33 0 52 -20.5t19 -50.5q0 -25 -16 -44t-48 -22z" />
<glyph unicode="&#xaf;" horiz-adv-x="224" d="M224 667h-224v28h224v-28z" />
<glyph unicode="&#xb0;" horiz-adv-x="500" d="M399 559q0 -61 -43.5 -105t-105.5 -44t-105.5 44t-43.5 105t43.5 105t105.5 44t105.5 -44t43.5 -105zM369 559q0 50 -35 85.5t-84 35.5t-84 -35.5t-35 -85.5t35 -85.5t84 -35.5t84 35.5t35 85.5z" />
<glyph unicode="&#xb1;" horiz-adv-x="600" d="M534 297h-218v-195h-31v195h-218v31h218v195h31v-195h218v-31zM534 15h-467v31h467v-31z" />
<glyph unicode="&#xb2;" horiz-adv-x="360" d="M303 271h-256l173 191q50 55 50 94q0 37 -28 63.5t-67 26.5q-55 0 -88 -53l-22 14q37 67 111 67q55 0 90 -34t35 -84q0 -45 -53 -107l-136 -150h191v-28z" />
<glyph unicode="&#xb3;" horiz-adv-x="360" d="M294 386q0 -50 -40.5 -84.5t-95.5 -34.5q-75 0 -119 51l26 15q32 -38 93 -38q43 0 73.5 26.5t30.5 63.5q0 40 -32 64.5t-77 24.5h-45v26h25q114 0 114 72q0 33 -25 53.5t-60 20.5q-52 0 -84 -33l-23 19q45 42 107 42q51 0 84 -29t33 -73q0 -61 -58 -85q36 -13 54.5 -41 t18.5 -60z" />
<glyph unicode="&#xb4;" horiz-adv-x="224" d="M216 779l-111 -145h-31l113 162z" />
<glyph unicode="&#xb6;" horiz-adv-x="530" d="M493 672h-67v-836h-32v836h-70v-836h-136v28h104v441q-72 0 -128.5 18t-95 64t-38.5 116q0 53 21 92.5t56.5 61.5t75 32.5t82.5 10.5h228v-28zM292 332v341q-79 -2 -119.5 -49t-40.5 -121t41 -121.5t119 -49.5z" />
<glyph unicode="&#xb7;" horiz-adv-x="246" d="M155 277q0 -13 -9.5 -22.5t-23.5 -9.5t-23 9.5t-9 22.5t9 22.5t23 9.5t23.5 -9.5t9.5 -22.5z" />
<glyph unicode="&#xb8;" horiz-adv-x="224" d="M185 -134q0 -74 -125 -74q-17 0 -43 2l10 22q3 0 15.5 -0.5t20.5 -0.5q37 0 63.5 11.5t26.5 37.5q0 48 -98 48l38 88h26l-28 -66q41 0 67.5 -18t26.5 -50z" />
<glyph unicode="&#xb9;" horiz-adv-x="336" d="M204 271h-31v369l-91 -36l-13 26l115 44h20v-403z" />
<glyph unicode="&#xba;" horiz-adv-x="414" d="M365 516q0 -65 -46.5 -111.5t-111.5 -46.5t-111.5 46.5t-46.5 111.5t46.5 111.5t111.5 46.5t111.5 -46.5t46.5 -111.5zM357 280h-300v28h300v-28zM333 516q0 53 -37 91.5t-89 38.5t-89 -38.5t-37 -91.5t37 -91.5t89 -38.5t89 38.5t37 91.5z" />
<glyph unicode="&#xbb;" horiz-adv-x="537" d="M496 281l-188 -194l-22 20l166 174l-166 174l22 20zM280 281l-188 -194l-22 20l166 174l-166 174l22 20z" />
<glyph unicode="&#xbc;" horiz-adv-x="774" d="M735 118h-67v-118h-32v118h-216l248 304v-276h67v-28zM603 674l-377 -682h-35l377 682h35zM204 271h-31v369l-91 -36l-13 26l115 44h20v-403zM636 146v192l-156 -192h156z" />
<glyph unicode="&#xbd;" horiz-adv-x="774" d="M713 0h-256l173 191q50 55 50 94q0 37 -28 63.5t-67 26.5q-55 0 -88 -53l-22 14q37 67 111 67q55 0 90 -34t35 -84q0 -45 -53 -107l-136 -150h191v-28zM564 674l-377 -682h-35l377 682h35zM204 271h-31v369l-91 -36l-13 26l115 44h20v-403z" />
<glyph unicode="&#xbe;" horiz-adv-x="774" d="M735 118h-67v-118h-32v118h-216l248 304v-276h67v-28zM603 674l-377 -682h-35l377 682h35zM294 386q0 -50 -40.5 -84.5t-95.5 -34.5q-75 0 -119 51l26 15q32 -38 93 -38q43 0 73.5 26.5t30.5 63.5q0 40 -32 64.5t-77 24.5h-45v26h25q114 0 114 72q0 33 -25 53.5t-60 20.5 q-52 0 -84 -33l-23 19q45 42 107 42q51 0 84 -29t33 -73q0 -61 -58 -85q36 -13 54.5 -41t18.5 -60zM636 146v192l-156 -192h156z" />
<glyph unicode="&#xbf;" horiz-adv-x="464" d="M300 522q0 -14 -9 -23t-23 -9t-23.5 9.5t-9.5 22.5t9.5 22.5t23.5 9.5t23 -9t9 -23zM399 -81q-50 -73 -162 -73q-73 0 -125.5 40.5t-52.5 110.5q0 47 19 83.5t69 77.5q59 49 81 86.5t24 101.5h32q-3 -67 -24.5 -110t-76.5 -87q-49 -40 -70.5 -71t-21.5 -79q0 -53 43 -89 t103 -36q95 0 135 61z" />
<glyph unicode="&#xc0;" horiz-adv-x="606" d="M606 0h-35l-115 264h-306l-115 -264h-35l303 688zM443 292l-140 323l-140 -323h280zM363 722h-31l-111 145l29 17z" />
<glyph unicode="&#xc1;" horiz-adv-x="606" d="M606 0h-35l-115 264h-306l-115 -264h-35l303 688zM443 292l-140 323l-140 -323h280zM407 867l-111 -145h-31l113 162z" />
<glyph unicode="&#xc2;" horiz-adv-x="606" d="M606 0h-35l-115 264h-306l-115 -264h-35l303 688zM443 292l-140 323l-140 -323h280zM416 722h-38l-75 111l-75 -111h-38l113 159z" />
<glyph unicode="&#xc3;" horiz-adv-x="606" d="M606 0h-35l-115 264h-306l-115 -264h-35l303 688zM443 292l-140 323l-140 -323h280zM434 803q-10 -68 -70 -68q-25 0 -64 20.5t-53 20.5q-36 0 -48 -43l-23 3q5 33 23 51t44 18q25 0 67 -21t54 -21q38 0 48 44z" />
<glyph unicode="&#xc4;" horiz-adv-x="606" d="M606 0h-35l-115 264h-306l-115 -264h-35l303 688zM443 292l-140 323l-140 -323h280zM407 786q0 -14 -9.5 -23t-22.5 -9t-22.5 9t-9.5 23t9.5 23t22.5 9t22.5 -9t9.5 -23zM263 786q0 -14 -9.5 -23t-22.5 -9t-22.5 9t-9.5 23t9.5 23t22.5 9t22.5 -9t9.5 -23z" />
<glyph unicode="&#xc5;" horiz-adv-x="606" d="M606 0h-35l-115 264h-306l-115 -264h-35l303 688zM443 292l-140 323l-140 -323h280zM402 814q0 -40 -29 -69t-70 -29t-70 29t-29 69t29 69t70 29t70 -29t29 -69zM373 814q0 29 -21 50t-49 21t-49 -21t-21 -50t21 -50t49 -21t49 21t21 50z" />
<glyph unicode="&#xc6;" horiz-adv-x="899" d="M791 0h-354v323h-213l-219 -323h-38l451 666h373v-28h-321v-287h309v-28h-309v-295h321v-28zM437 351v287l-194 -287h194z" />
<glyph unicode="&#xc7;" horiz-adv-x="652" d="M580 45q-77 -53 -186 -53h-12l-25 -58q41 0 67.5 -18t26.5 -50q0 -74 -125 -74q-17 0 -43 2l10 22q3 0 15.5 -0.5t20.5 -0.5q37 0 63.5 11.5t26.5 37.5q0 48 -98 48l35 82q-129 14 -216.5 111t-87.5 228q0 142 100.5 241.5t241.5 99.5q106 0 186 -54l-19 -24 q-80 50 -166 50q-129 0 -219 -90.5t-90 -222.5t90 -222.5t219 -90.5q83 0 166 49z" />
<glyph unicode="&#xc8;" horiz-adv-x="548" d="M470 0h-370v666h370v-28h-337v-287h325v-28h-325v-295h337v-28zM344 722h-31l-111 145l29 17z" />
<glyph unicode="&#xc9;" horiz-adv-x="548" d="M470 0h-370v666h370v-28h-337v-287h325v-28h-325v-295h337v-28zM388 867l-111 -145h-31l113 162z" />
<glyph unicode="&#xca;" horiz-adv-x="548" d="M470 0h-370v666h370v-28h-337v-287h325v-28h-325v-295h337v-28zM397 722h-38l-75 111l-75 -111h-38l113 159z" />
<glyph unicode="&#xcb;" horiz-adv-x="548" d="M470 0h-370v666h370v-28h-337v-287h325v-28h-325v-295h337v-28zM388 786q0 -14 -9 -23t-23 -9t-23 9t-9 23t9 23t23 9t23 -9t9 -23zM244 786q0 -14 -9 -23t-23 -9t-23 9t-9 23t9 23t23 9t23 -9t9 -23z" />
<glyph unicode="&#xcc;" horiz-adv-x="253" d="M143 0h-33v666h33v-666zM186 722h-31l-111 145l29 17z" />
<glyph unicode="&#xcd;" horiz-adv-x="253" d="M143 0h-33v666h33v-666zM202 867l-111 -145h-31l113 162z" />
<glyph unicode="&#xce;" horiz-adv-x="253" d="M143 0h-33v666h33v-666zM239 722h-38l-75 111l-75 -111h-38l113 159z" />
<glyph unicode="&#xcf;" horiz-adv-x="253" d="M143 0h-33v666h33v-666zM230 786q0 -14 -9 -23t-23 -9t-23 9t-9 23t9 23t23 9t23 -9t9 -23zM86 786q0 -14 -9 -23t-23 -9t-23 9t-9 23t9 23t23 9t23 -9t9 -23z" />
<glyph unicode="&#xd0;" horiz-adv-x="693" d="M641 333q0 -142 -97 -237.5t-240 -95.5h-204v330h-100v28h100v308h204q143 0 240 -95.5t97 -237.5zM607 333q0 127 -88 216t-218 89h-168v-280h189v-28h-189v-302h168q130 0 218 89t88 216z" />
<glyph unicode="&#xd1;" horiz-adv-x="734" d="M634 -22l-501 615v-593h-33v688l502 -615v593h32v-688zM503 803q-10 -68 -70 -68q-25 0 -64 20.5t-53 20.5q-36 0 -48 -43l-23 3q5 33 23 51t44 18q24 0 66 -21t55 -21q38 0 48 44z" />
<glyph unicode="&#xd2;" horiz-adv-x="786" d="M734 333q0 -142 -99.5 -241.5t-241.5 -99.5t-241.5 99.5t-99.5 241.5t99.5 241.5t241.5 99.5t241.5 -99.5t99.5 -241.5zM700 333q0 132 -89 222.5t-218 90.5t-218 -90.5t-89 -222.5t89 -222.5t218 -90.5t218 90.5t89 222.5zM454 722h-31l-111 145l29 17z" />
<glyph unicode="&#xd3;" horiz-adv-x="786" d="M734 333q0 -142 -99.5 -241.5t-241.5 -99.5t-241.5 99.5t-99.5 241.5t99.5 241.5t241.5 99.5t241.5 -99.5t99.5 -241.5zM700 333q0 132 -89 222.5t-218 90.5t-218 -90.5t-89 -222.5t89 -222.5t218 -90.5t218 90.5t89 222.5zM498 867l-111 -145h-31l113 162z" />
<glyph unicode="&#xd4;" horiz-adv-x="786" d="M734 333q0 -142 -99.5 -241.5t-241.5 -99.5t-241.5 99.5t-99.5 241.5t99.5 241.5t241.5 99.5t241.5 -99.5t99.5 -241.5zM700 333q0 132 -89 222.5t-218 90.5t-218 -90.5t-89 -222.5t89 -222.5t218 -90.5t218 90.5t89 222.5zM507 722h-38l-75 111l-75 -111h-38l113 159z " />
<glyph unicode="&#xd5;" horiz-adv-x="786" d="M734 333q0 -142 -99.5 -241.5t-241.5 -99.5t-241.5 99.5t-99.5 241.5t99.5 241.5t241.5 99.5t241.5 -99.5t99.5 -241.5zM700 333q0 132 -89 222.5t-218 90.5t-218 -90.5t-89 -222.5t89 -222.5t218 -90.5t218 90.5t89 222.5zM535 803q-10 -68 -70 -68q-25 0 -64 20.5 t-53 20.5q-36 0 -48 -43l-23 3q5 33 23 51t44 18q24 0 66 -21t55 -21q38 0 48 44z" />
<glyph unicode="&#xd6;" horiz-adv-x="786" d="M734 333q0 -142 -99.5 -241.5t-241.5 -99.5t-241.5 99.5t-99.5 241.5t99.5 241.5t241.5 99.5t241.5 -99.5t99.5 -241.5zM700 333q0 132 -89 222.5t-218 90.5t-218 -90.5t-89 -222.5t89 -222.5t218 -90.5t218 90.5t89 222.5zM498 786q0 -14 -9 -23t-23 -9t-23 9t-9 23 t9 23t23 9t23 -9t9 -23zM354 786q0 -14 -9 -23t-23 -9t-23 9t-9 23t9 23t23 9t23 -9t9 -23z" />
<glyph unicode="&#xd7;" horiz-adv-x="600" d="M490 109l-22 -22l-168 168l-167 -167l-22 22l167 167l-168 167l22 22l168 -167l167 167l22 -22l-167 -167z" />
<glyph unicode="&#xd8;" horiz-adv-x="786" d="M734 333q0 -142 -99.5 -241.5t-241.5 -99.5q-114 0 -207 69l-81 -98h-37l97 116q-113 102 -113 254q0 142 99.5 241.5t241.5 99.5q116 0 207 -70l82 99h37l-97 -117q112 -101 112 -253zM700 333q0 138 -97 230l-398 -479q83 -64 188 -64q129 0 218 90.5t89 222.5z M581 582q-83 64 -188 64q-129 0 -218 -90.5t-89 -222.5q0 -139 98 -231z" />
<glyph unicode="&#xd9;" horiz-adv-x="704" d="M608 264q0 -123 -74 -197.5t-182 -74.5t-182 74.5t-74 197.5v402h32v-396q0 -113 62.5 -181.5t161.5 -68.5t161.5 68.5t62.5 181.5v396h32v-402zM416 722h-31l-111 145l29 17z" />
<glyph unicode="&#xda;" horiz-adv-x="704" d="M608 264q0 -123 -74 -197.5t-182 -74.5t-182 74.5t-74 197.5v402h32v-396q0 -113 62.5 -181.5t161.5 -68.5t161.5 68.5t62.5 181.5v396h32v-402zM460 867l-111 -145h-31l113 162z" />
<glyph unicode="&#xdb;" horiz-adv-x="704" d="M608 264q0 -123 -74 -197.5t-182 -74.5t-182 74.5t-74 197.5v402h32v-396q0 -113 62.5 -181.5t161.5 -68.5t161.5 68.5t62.5 181.5v396h32v-402zM469 722h-38l-75 111l-75 -111h-38l113 159z" />
<glyph unicode="&#xdc;" horiz-adv-x="704" d="M608 264q0 -123 -74 -197.5t-182 -74.5t-182 74.5t-74 197.5v402h32v-396q0 -113 62.5 -181.5t161.5 -68.5t161.5 68.5t62.5 181.5v396h32v-402zM460 786q0 -14 -9 -23t-23 -9t-23 9t-9 23t9 23t23 9t23 -9t9 -23zM316 786q0 -14 -9 -23t-23 -9t-23 9t-9 23t9 23t23 9 t23 -9t9 -23z" />
<glyph unicode="&#xdd;" horiz-adv-x="501" d="M513 666l-246 -364v-302h-33v302l-246 364h39l224 -329l223 329h39zM351 867l-111 -145h-31l113 162z" />
<glyph unicode="&#xde;" horiz-adv-x="546" d="M497 335q0 -78 -55.5 -129.5t-140.5 -51.5h-168v-154h-33v666h33v-148h168q85 0 140.5 -52.5t55.5 -130.5zM465 335q0 65 -44.5 110t-120.5 45h-167v-309h167q75 0 120 44.5t45 109.5z" />
<glyph unicode="&#xdf;" horiz-adv-x="936" d="M407 150q0 -68 -53 -113t-130 -45q-71 0 -120.5 38.5t-58.5 94.5l32 7q10 -50 51 -80.5t98 -30.5q65 0 106 37.5t41 91.5q0 48 -35 77.5t-120 48.5q-84 19 -119.5 50.5t-35.5 83.5q0 63 49.5 103.5t119.5 40.5q63 0 106.5 -31t56.5 -80l-32 -6q-12 39 -49 63.5t-84 24.5 q-57 0 -95.5 -32.5t-38.5 -80.5q0 -42 32.5 -66t113.5 -43q89 -21 127 -57t38 -96zM875 150q0 -68 -53 -113t-130 -45q-71 0 -120.5 38.5t-58.5 94.5l32 7q10 -50 51 -80.5t98 -30.5q65 0 106 37.5t41 91.5q0 48 -35 77.5t-120 48.5q-84 19 -119.5 50.5t-35.5 83.5 q0 63 49.5 103.5t119.5 40.5q63 0 106.5 -31t56.5 -80l-32 -6q-12 39 -49 63.5t-84 24.5q-57 0 -95.5 -32.5t-38.5 -80.5q0 -42 32.5 -66t113.5 -43q89 -21 127 -57t38 -96z" />
<glyph unicode="&#xe0;" horiz-adv-x="513" d="M510 0h-36l-94 210h-246l-94 -210h-36l253 564zM368 238l-111 251l-111 -251h222zM317 634h-31l-111 145l29 17z" />
<glyph unicode="&#xe1;" horiz-adv-x="513" d="M510 0h-36l-94 210h-246l-94 -210h-36l253 564zM368 238l-111 251l-111 -251h222zM351 779l-111 -145h-31l113 162z" />
<glyph unicode="&#xe2;" horiz-adv-x="513" d="M510 0h-36l-94 210h-246l-94 -210h-36l253 564zM368 238l-111 251l-111 -251h222zM370 634h-38l-75 111l-75 -111h-38l113 159z" />
<glyph unicode="&#xe3;" horiz-adv-x="513" d="M510 0h-36l-94 210h-246l-94 -210h-36l253 564zM368 238l-111 251l-111 -251h222zM388 715q-10 -68 -70 -68q-25 0 -64 20.5t-53 20.5q-36 0 -48 -43l-23 3q5 33 23 51t44 18q25 0 67 -21t54 -21q38 0 48 44z" />
<glyph unicode="&#xe4;" horiz-adv-x="513" d="M510 0h-36l-94 210h-246l-94 -210h-36l253 564zM368 238l-111 251l-111 -251h222zM361 698q0 -14 -9.5 -23t-22.5 -9t-22.5 9t-9.5 23t9.5 23t22.5 9t22.5 -9t9.5 -23zM217 698q0 -14 -9.5 -23t-22.5 -9t-22.5 9t-9.5 23t9.5 23t22.5 9t22.5 -9t9.5 -23z" />
<glyph unicode="&#xe5;" horiz-adv-x="513" d="M510 0h-36l-94 210h-246l-94 -210h-36l253 564zM368 238l-111 251l-111 -251h222zM356 732q0 -40 -29 -69t-70 -29t-70 29t-29 69t29 69t70 29t70 -29t29 -69zM327 732q0 29 -21 50t-49 21t-49 -21t-21 -50t21 -50t49 -21t49 21t21 50z" />
<glyph unicode="&#xe6;" horiz-adv-x="748" d="M660 0h-296v262h-176l-178 -262h-37l370 546h317v-28h-264v-228h254v-28h-254v-234h264v-28zM364 290v233l-157 -233h157z" />
<glyph unicode="&#xe7;" horiz-adv-x="542" d="M485 40q-71 -48 -159 -48h-8l-25 -58q41 0 67.5 -18t26.5 -50q0 -74 -125 -74q-17 0 -43 2l10 22q3 0 15.5 -0.5t20.5 -0.5q37 0 63.5 11.5t26.5 37.5q0 48 -98 48l35 82q-104 12 -174.5 92t-70.5 187q0 117 81.5 199t197.5 82q89 0 159 -50l-20 -22q-65 43 -138 43 q-103 0 -175 -73t-72 -179q0 -105 72 -178.5t175 -73.5q71 0 138 43z" />
<glyph unicode="&#xe8;" horiz-adv-x="462" d="M394 0h-308v546h308v-28h-276v-228h267v-28h-267v-234h276v-28zM300 634h-31l-111 145l29 17z" />
<glyph unicode="&#xe9;" horiz-adv-x="462" d="M394 0h-308v546h308v-28h-276v-228h267v-28h-267v-234h276v-28zM344 779l-111 -145h-31l113 162z" />
<glyph unicode="&#xea;" horiz-adv-x="462" d="M394 0h-308v546h308v-28h-276v-228h267v-28h-267v-234h276v-28zM353 634h-38l-75 111l-75 -111h-38l113 159z" />
<glyph unicode="&#xeb;" horiz-adv-x="462" d="M394 0h-308v546h308v-28h-276v-228h267v-28h-267v-234h276v-28zM344 698q0 -14 -9 -23t-23 -9t-23 9t-9 23t9 23t23 9t23 -9t9 -23zM200 698q0 -14 -9 -23t-23 -9t-23 9t-9 23t9 23t23 9t23 -9t9 -23z" />
<glyph unicode="&#xec;" horiz-adv-x="226" d="M129 0h-32v546h32v-546zM173 634h-31l-111 145l29 17z" />
<glyph unicode="&#xed;" horiz-adv-x="226" d="M129 0h-32v546h32v-546zM216 779l-111 -145h-31l113 162z" />
<glyph unicode="&#xee;" horiz-adv-x="226" d="M129 0h-32v546h32v-546zM226 634h-38l-75 111l-75 -111h-38l113 159z" />
<glyph unicode="&#xef;" horiz-adv-x="226" d="M129 0h-32v546h32v-546zM217 698q0 -14 -9.5 -23t-22.5 -9t-22.5 9t-9.5 23t9.5 23t22.5 9t22.5 -9t9.5 -23zM73 698q0 -14 -9.5 -23t-22.5 -9t-22.5 9t-9.5 23t9.5 23t22.5 9t22.5 -9t9.5 -23z" />
<glyph unicode="&#xf0;" horiz-adv-x="578" d="M532 273q0 -117 -80 -195t-197 -78h-169v268h-86v28h86v250h169q117 0 197 -78t80 -195zM499 273q0 104 -71.5 174.5t-175.5 70.5h-134v-222h158v-28h-158v-240h134q104 0 175.5 71t71.5 174z" />
<glyph unicode="&#xf1;" horiz-adv-x="612" d="M526 -18l-408 495v-477h-32v564l408 -495v477h32v-564zM433 715q-10 -68 -70 -68q-25 0 -64 20.5t-53 20.5q-36 0 -48 -43l-23 3q5 33 23 51t44 18q24 0 66 -21t55 -21q38 0 48 44z" />
<glyph unicode="&#xf2;" horiz-adv-x="652" d="M606 273q0 -116 -82 -198.5t-198 -82.5t-197.5 82.5t-81.5 198.5t81.5 198.5t197.5 82.5t198 -82.5t82 -198.5zM572 273q0 105 -71.5 178.5t-174.5 73.5t-174.5 -73.5t-71.5 -178.5t71.5 -178.5t174.5 -73.5t174.5 73.5t71.5 178.5zM385 634h-31l-111 145l29 17z" />
<glyph unicode="&#xf3;" horiz-adv-x="652" d="M606 273q0 -116 -82 -198.5t-198 -82.5t-197.5 82.5t-81.5 198.5t81.5 198.5t197.5 82.5t198 -82.5t82 -198.5zM572 273q0 105 -71.5 178.5t-174.5 73.5t-174.5 -73.5t-71.5 -178.5t71.5 -178.5t174.5 -73.5t174.5 73.5t71.5 178.5zM429 779l-111 -145h-31l113 162z" />
<glyph unicode="&#xf4;" horiz-adv-x="652" d="M606 273q0 -116 -82 -198.5t-198 -82.5t-197.5 82.5t-81.5 198.5t81.5 198.5t197.5 82.5t198 -82.5t82 -198.5zM572 273q0 105 -71.5 178.5t-174.5 73.5t-174.5 -73.5t-71.5 -178.5t71.5 -178.5t174.5 -73.5t174.5 73.5t71.5 178.5zM438 634h-38l-75 111l-75 -111h-38 l113 159z" />
<glyph unicode="&#xf5;" horiz-adv-x="652" d="M606 273q0 -116 -82 -198.5t-198 -82.5t-197.5 82.5t-81.5 198.5t81.5 198.5t197.5 82.5t198 -82.5t82 -198.5zM572 273q0 105 -71.5 178.5t-174.5 73.5t-174.5 -73.5t-71.5 -178.5t71.5 -178.5t174.5 -73.5t174.5 73.5t71.5 178.5zM456 715q-10 -68 -70 -68 q-25 0 -64 20.5t-53 20.5q-36 0 -48 -43l-23 3q5 33 23 51t44 18q25 0 67 -21t54 -21q38 0 48 44z" />
<glyph unicode="&#xf6;" horiz-adv-x="652" d="M606 273q0 -116 -82 -198.5t-198 -82.5t-197.5 82.5t-81.5 198.5t81.5 198.5t197.5 82.5t198 -82.5t82 -198.5zM572 273q0 105 -71.5 178.5t-174.5 73.5t-174.5 -73.5t-71.5 -178.5t71.5 -178.5t174.5 -73.5t174.5 73.5t71.5 178.5zM429 698q0 -14 -9.5 -23t-22.5 -9 t-22.5 9t-9.5 23t9.5 23t22.5 9t22.5 -9t9.5 -23zM285 698q0 -14 -9.5 -23t-22.5 -9t-22.5 9t-9.5 23t9.5 23t22.5 9t22.5 -9t9.5 -23z" />
<glyph unicode="&#xf7;" horiz-adv-x="600" d="M333 483q0 -13 -9.5 -22.5t-23.5 -9.5t-23 9.5t-9 22.5t9 22.5t23 9.5t23.5 -9.5t9.5 -22.5zM534 261h-467v31h467v-31zM333 70q0 -13 -9.5 -22.5t-23.5 -9.5t-23 9t-9 23t9 23t23 9t23.5 -9.5t9.5 -22.5z" />
<glyph unicode="&#xf8;" horiz-adv-x="652" d="M606 273q0 -116 -82 -198.5t-198 -82.5q-93 0 -167 56l-65 -78h-38l80 97q-89 83 -89 206q0 116 81.5 198.5t197.5 82.5q92 0 168 -56l65 78h39l-81 -98q89 -84 89 -205zM572 273q0 107 -75 182l-319 -384q64 -50 148 -50q103 0 174.5 73.5t71.5 178.5zM475 474 q-65 51 -149 51q-103 0 -174.5 -73.5t-71.5 -178.5q0 -109 76 -183z" />
<glyph unicode="&#xf9;" horiz-adv-x="588" d="M506 217q0 -103 -61 -164t-151 -61t-150.5 61t-60.5 164v329h32v-327q0 -91 50 -144.5t129 -53.5t129.5 53.5t50.5 144.5v327h32v-329zM356 634h-31l-111 145l29 17z" />
<glyph unicode="&#xfa;" horiz-adv-x="588" d="M506 217q0 -103 -61 -164t-151 -61t-150.5 61t-60.5 164v329h32v-327q0 -91 50 -144.5t129 -53.5t129.5 53.5t50.5 144.5v327h32v-329zM400 779l-111 -145h-31l113 162z" />
<glyph unicode="&#xfb;" horiz-adv-x="588" d="M506 217q0 -103 -61 -164t-151 -61t-150.5 61t-60.5 164v329h32v-327q0 -91 50 -144.5t129 -53.5t129.5 53.5t50.5 144.5v327h32v-329zM409 634h-38l-75 111l-75 -111h-38l113 159z" />
<glyph unicode="&#xfc;" horiz-adv-x="588" d="M506 217q0 -103 -61 -164t-151 -61t-150.5 61t-60.5 164v329h32v-327q0 -91 50 -144.5t129 -53.5t129.5 53.5t50.5 144.5v327h32v-329zM400 698q0 -14 -9 -23t-23 -9t-23 9t-9 23t9 23t23 9t23 -9t9 -23zM256 698q0 -14 -9 -23t-23 -9t-23 9t-9 23t9 23t23 9t23 -9t9 -23 z" />
<glyph unicode="&#xfd;" horiz-adv-x="433" d="M438 546l-206 -300v-246h-32v246l-206 300h40l182 -265l182 265h40zM324 779l-111 -145h-31l113 162z" />
<glyph unicode="&#xfe;" horiz-adv-x="466" d="M422 275q0 -65 -46.5 -108t-117.5 -43h-140v-124h-32v546h32v-119h140q71 0 117.5 -43.5t46.5 -108.5zM389 275q0 51 -35.5 87.5t-95.5 36.5h-140v-247h140q60 0 95.5 36.5t35.5 86.5z" />
<glyph unicode="&#xff;" horiz-adv-x="433" d="M438 546l-206 -300v-246h-32v246l-206 300h40l182 -265l182 265h40zM320 698q0 -14 -9 -23t-23 -9t-23 9t-9 23t9 23t23 9t23 -9t9 -23zM176 698q0 -14 -9 -23t-23 -9t-23 9t-9 23t9 23t23 9t23 -9t9 -23z" />
<glyph unicode="&#x152;" horiz-adv-x="932" d="M854 0h-225q-37 0 -112 -4t-119 -4q-147 0 -246.5 99t-99.5 242t99.5 242t246.5 99q44 0 119 -4t112 -4h225v-28h-321v-287h309v-28h-309v-295h321v-28zM500 27v612q-51 7 -99 7q-133 0 -224 -89.5t-91 -223.5t90.5 -223.5t224.5 -89.5q48 0 99 7z" />
<glyph unicode="&#x153;" horiz-adv-x="778" d="M714 0h-194q-31 0 -92.5 -4t-97.5 -4q-120 0 -201.5 82t-81.5 199t81.5 199t201.5 82q36 0 97.5 -4t92.5 -4h194v-28h-263v-228h253v-28h-253v-234h263v-28zM419 26v494q-43 6 -81 6q-110 0 -184 -72t-74 -181q0 -110 74 -181.5t184 -71.5q38 0 81 6z" />
<glyph unicode="&#x178;" horiz-adv-x="501" d="M513 666l-246 -364v-302h-33v302l-246 364h39l224 -329l223 329h39zM358 786q0 -14 -9 -23t-23 -9t-23 9t-9 23t9 23t23 9t23 -9t9 -23zM214 786q0 -14 -9 -23t-23 -9t-23 9t-9 23t9 23t23 9t23 -9t9 -23z" />
<glyph unicode="&#x2c6;" horiz-adv-x="224" d="M225 634h-38l-75 111l-75 -111h-38l113 159z" />
<glyph unicode="&#x2dc;" horiz-adv-x="224" d="M243 715q-10 -68 -70 -68q-25 0 -64 20.5t-53 20.5q-36 0 -48 -43l-23 3q5 33 23 51t44 18q24 0 66 -21t55 -21q38 0 48 44z" />
<glyph unicode="&#x2000;" horiz-adv-x="456" />
<glyph unicode="&#x2001;" horiz-adv-x="912" />
<glyph unicode="&#x2002;" horiz-adv-x="456" />
<glyph unicode="&#x2003;" horiz-adv-x="912" />
<glyph unicode="&#x2004;" horiz-adv-x="304" />
<glyph unicode="&#x2005;" horiz-adv-x="228" />
<glyph unicode="&#x2006;" horiz-adv-x="152" />
<glyph unicode="&#x2007;" horiz-adv-x="152" />
<glyph unicode="&#x2008;" horiz-adv-x="114" />
<glyph unicode="&#x2009;" horiz-adv-x="182" />
<glyph unicode="&#x200a;" horiz-adv-x="50" />
<glyph unicode="&#x2010;" horiz-adv-x="345" d="M280 263h-215v26h215v-26z" />
<glyph unicode="&#x2011;" horiz-adv-x="345" d="M280 263h-215v26h215v-26z" />
<glyph unicode="&#x2012;" horiz-adv-x="345" d="M280 263h-215v26h215v-26z" />
<glyph unicode="&#x2013;" horiz-adv-x="500" d="M500 263h-500v26h500v-26z" />
<glyph unicode="&#x2014;" horiz-adv-x="1000" d="M1000 263h-1000v26h1000v-26z" />
<glyph unicode="&#x2018;" horiz-adv-x="246" d="M188 458h-32l-103 221l29 14z" />
<glyph unicode="&#x2019;" horiz-adv-x="246" d="M193 679l-103 -221h-32l106 235z" />
<glyph unicode="&#x201a;" horiz-adv-x="246" d="M152 53l-103 -221h-32l106 235z" />
<glyph unicode="&#x201c;" horiz-adv-x="395" d="M337 458h-32l-103 221l29 14zM188 458h-32l-103 221l29 14z" />
<glyph unicode="&#x201d;" horiz-adv-x="395" d="M342 679l-103 -221h-32l106 235zM193 679l-103 -221h-32l106 235z" />
<glyph unicode="&#x201e;" horiz-adv-x="395" d="M301 53l-103 -221h-32l106 235zM152 53l-103 -221h-32l106 235z" />
<glyph unicode="&#x2022;" horiz-adv-x="500" d="M416 336q0 -69 -49 -117.5t-118 -48.5q-68 0 -117 49t-49 117t49 117t117 49q69 0 118 -48.5t49 -117.5z" />
<glyph unicode="&#x2026;" horiz-adv-x="1000" d="M866 24q0 -13 -9.5 -22.5t-23.5 -9.5q-13 0 -22.5 9t-9.5 23t9.5 23t22.5 9q14 0 23.5 -9.5t9.5 -22.5zM533 24q0 -13 -9.5 -22.5t-23.5 -9.5t-23 9t-9 23t9 23t23 9t23.5 -9.5t9.5 -22.5zM200 24q0 -13 -9.5 -22.5t-23.5 -9.5q-13 0 -22.5 9t-9.5 23t9.5 23t22.5 9 q14 0 23.5 -9.5t9.5 -22.5z" />
<glyph unicode="&#x202f;" horiz-adv-x="182" />
<glyph unicode="&#x2039;" horiz-adv-x="321" d="M251 107l-22 -20l-188 194l188 194l22 -20l-166 -174z" />
<glyph unicode="&#x203a;" horiz-adv-x="321" d="M280 281l-188 -194l-22 20l166 174l-166 174l22 20z" />
<glyph unicode="&#x205f;" horiz-adv-x="228" />
<glyph unicode="&#x20ac;" d="M523 45q-69 -53 -151 -53q-98 0 -174 75t-96 191h-93l8 26h81q-3 24 -3 49q0 30 5 63h-85l8 26h81q25 111 99 181.5t169 70.5q86 0 151 -54l-18 -24q-66 50 -135 50q-84 0 -148 -62t-86 -162h284l-8 -26h-281q-4 -27 -4 -63q0 -25 3 -49h253l-8 -26h-241 q18 -105 83 -171.5t153 -66.5q67 0 135 49z" />
<glyph unicode="&#x2122;" horiz-adv-x="854" d="M797 331h-34l-95 290l-101 -302l-101 302l-95 -290h-34l128 380l102 -297l102 297zM322 673h-126v-342h-32v342h-127v27h285v-27z" />
</font>
</defs>
</svg>
